<svg width="597" height="639" viewBox="0 0 597 639" fill="none" xmlns="http://www.w3.org/2000/svg">
<mask id="mask0_68_67" style="mask-type:luminance" maskUnits="userSpaceOnUse" x="0" y="0" width="597" height="639">
<path d="M0 0H597V639H0V0Z" fill="white"/>
</mask>
<g mask="url(#mask0_68_67)">
<mask id="mask1_68_67" style="mask-type:luminance" maskUnits="userSpaceOnUse" x="0" y="0" width="597" height="639">
<path d="M564.16 301.078C558.09 301.078 553.16 296.141 553.16 290.078C553.16 284.012 558.09 279.07 564.16 279.07C570.23 279.07 575.172 284.012 575.172 290.078C575.172 296.141 570.23 301.078 564.16 301.078ZM495.809 342.922C501.879 342.922 506.82 347.859 506.82 353.93C506.82 359.988 501.879 364.93 495.809 364.93C489.75 364.93 484.809 359.988 484.809 353.93C484.809 347.859 489.75 342.922 495.809 342.922ZM298.301 43.7695C292.23 43.7695 287.297 38.8281 287.297 32.7617C287.297 26.6992 292.23 21.7617 298.301 21.7617C304.367 21.7617 309.305 26.6992 309.305 32.7617C309.305 38.8281 304.367 43.7695 298.301 43.7695ZM309.305 606.219C309.305 612.281 304.367 617.219 298.301 617.219C292.23 617.219 287.297 612.281 287.297 606.219C287.297 600.148 292.23 595.211 298.301 595.211C304.367 595.211 309.305 600.148 309.305 606.219ZM400.102 595.211C406.172 595.211 411.109 600.148 411.109 606.219C411.109 612.281 406.172 617.219 400.102 617.219C394.031 617.219 389.102 612.281 389.102 606.219C389.102 600.148 394.031 595.211 400.102 595.211ZM196.5 617.219C190.434 617.219 185.496 612.281 185.496 606.219C185.496 600.148 190.434 595.211 196.5 595.211C202.57 595.211 207.508 600.148 207.508 606.219C207.508 612.281 202.57 617.219 196.5 617.219ZM100.789 364.93C94.7227 364.93 89.7852 359.988 89.7852 353.93C89.7852 347.859 94.7227 342.922 100.789 342.922C106.859 342.922 111.793 347.859 111.793 353.93C111.793 359.988 106.859 364.93 100.789 364.93ZM32.4375 301.078C26.3711 301.078 21.4336 296.141 21.4336 290.078C21.4336 284.012 26.3711 279.07 32.4375 279.07C38.5078 279.07 43.4453 284.012 43.4453 290.078C43.4453 296.141 38.5078 301.078 32.4375 301.078ZM143.539 237.23C137.469 237.23 132.531 232.301 132.531 226.23C132.531 220.16 137.469 215.219 143.539 215.219C149.605 215.219 154.543 220.16 154.543 226.23C154.543 232.301 149.605 237.23 143.539 237.23ZM234.453 99.3008C228.387 99.3008 223.449 94.3594 223.449 88.2891C223.449 82.2188 228.387 77.2812 234.453 77.2812C240.523 77.2812 245.457 82.2188 245.457 88.2891C245.457 94.3594 240.523 99.3008 234.453 99.3008ZM351.148 109.66C351.148 103.602 356.078 98.6602 362.148 98.6602C368.219 98.6602 373.16 103.602 373.16 109.66C373.16 115.73 368.219 120.672 362.148 120.672C356.078 120.672 351.148 115.73 351.148 109.66ZM453.07 215.219C459.141 215.219 464.07 220.16 464.07 226.23C464.07 232.301 459.141 237.23 453.07 237.23C447 237.23 442.059 232.301 442.059 226.23C442.059 220.16 447 215.219 453.07 215.219ZM564.16 257.699C550.059 257.699 538.059 266.781 533.629 279.391H359.672L375.73 236.91H422.539C426.969 249.531 438.961 258.609 453.07 258.609C470.922 258.609 485.449 244.078 485.449 226.23C485.449 208.371 470.922 193.852 453.07 193.852C438.961 193.852 426.969 202.93 422.539 215.539H360.961L336.812 279.391H308.988V225.91L372.84 201.77V140.191C385.449 135.762 394.531 123.77 394.531 109.66C394.531 91.8086 380 77.2812 362.148 77.2812C344.301 77.2812 329.77 91.8086 329.77 109.66C329.77 123.77 338.852 135.762 351.461 140.191V187L308.988 203.07V63.2891C321.598 58.8594 330.68 46.8711 330.68 32.7617C330.68 14.9102 316.152 0.378906 298.301 0.378906C280.445 0.378906 265.922 14.9102 265.922 32.7617C265.922 46.8711 275.004 58.8594 287.613 63.2891V181.691L245.141 165.621V118.82C257.75 114.391 266.832 102.391 266.832 88.2891C266.832 70.4297 252.309 55.9102 234.453 55.9102C216.602 55.9102 202.074 70.4297 202.074 88.2891C202.074 102.391 211.156 114.391 223.77 118.82V180.391L287.613 204.539V279.391H259.789L235.641 215.539H174.066C169.637 202.93 157.641 193.852 143.539 193.852C125.684 193.852 111.156 208.371 111.156 226.23C111.156 244.078 125.684 258.609 143.539 258.609C157.641 258.609 169.637 249.531 174.066 236.91H220.871L236.938 279.391H62.9688C58.5391 266.781 46.5469 257.699 32.4375 257.699C14.5859 257.699 0.0625 272.219 0.0625 290.078C0.0625 307.93 14.5859 322.449 32.4375 322.449C46.5469 322.449 58.5391 313.371 62.9688 300.762H194.191L178.125 343.238H131.316C126.891 330.629 114.895 321.539 100.789 321.539C82.9375 321.539 68.4102 336.07 68.4102 353.93C68.4102 371.781 82.9375 386.301 100.789 386.301C114.895 386.301 126.891 377.219 131.316 364.609H192.895L217.043 300.762H287.613V575.691C278.355 578.941 271.023 586.27 267.773 595.531H227.027C222.602 582.922 210.605 573.828 196.5 573.828C178.648 573.828 164.121 588.359 164.121 606.219C164.121 624.07 178.648 638.59 196.5 638.59C210.605 638.59 222.602 629.512 227.027 616.898H267.773C272.199 629.512 284.195 638.59 298.301 638.59C312.406 638.59 324.398 629.512 328.828 616.898H369.57C374 629.512 386 638.59 400.102 638.59C417.961 638.59 432.48 624.07 432.48 606.219C432.48 588.359 417.961 573.828 400.102 573.828C386 573.828 374 582.922 369.57 595.531H328.828C325.578 586.27 318.246 578.941 308.988 575.691V300.762H379.559L403.711 364.609H465.289C469.711 377.219 481.711 386.301 495.809 386.301C513.672 386.301 528.191 371.781 528.191 353.93C528.191 336.07 513.672 321.539 495.809 321.539C481.711 321.539 469.711 330.629 465.289 343.238H418.48L402.41 300.762H533.629C538.059 313.371 550.059 322.449 564.16 322.449C582.02 322.449 596.539 307.93 596.539 290.078C596.539 272.219 582.02 257.699 564.16 257.699Z" fill="white"/>
</mask>
<g mask="url(#mask1_68_67)">
<mask id="mask2_68_67" style="mask-type:luminance" maskUnits="userSpaceOnUse" x="0" y="0" width="597" height="639">
<path d="M564.16 301.078C558.09 301.078 553.16 296.141 553.16 290.078C553.16 284.012 558.09 279.07 564.16 279.07C570.23 279.07 575.172 284.012 575.172 290.078C575.172 296.141 570.23 301.078 564.16 301.078ZM495.809 342.922C501.879 342.922 506.82 347.859 506.82 353.93C506.82 359.988 501.879 364.93 495.809 364.93C489.75 364.93 484.809 359.988 484.809 353.93C484.809 347.859 489.75 342.922 495.809 342.922ZM298.301 43.7695C292.23 43.7695 287.297 38.8281 287.297 32.7617C287.297 26.6992 292.23 21.7617 298.301 21.7617C304.367 21.7617 309.305 26.6992 309.305 32.7617C309.305 38.8281 304.367 43.7695 298.301 43.7695ZM309.305 606.219C309.305 612.281 304.367 617.219 298.301 617.219C292.23 617.219 287.297 612.281 287.297 606.219C287.297 600.148 292.23 595.211 298.301 595.211C304.367 595.211 309.305 600.148 309.305 606.219ZM400.102 595.211C406.172 595.211 411.109 600.148 411.109 606.219C411.109 612.281 406.172 617.219 400.102 617.219C394.031 617.219 389.102 612.281 389.102 606.219C389.102 600.148 394.031 595.211 400.102 595.211ZM196.5 617.219C190.434 617.219 185.496 612.281 185.496 606.219C185.496 600.148 190.434 595.211 196.5 595.211C202.57 595.211 207.508 600.148 207.508 606.219C207.508 612.281 202.57 617.219 196.5 617.219ZM100.789 364.93C94.7227 364.93 89.7852 359.988 89.7852 353.93C89.7852 347.859 94.7227 342.922 100.789 342.922C106.859 342.922 111.793 347.859 111.793 353.93C111.793 359.988 106.859 364.93 100.789 364.93ZM32.4375 301.078C26.3711 301.078 21.4336 296.141 21.4336 290.078C21.4336 284.012 26.3711 279.07 32.4375 279.07C38.5078 279.07 43.4453 284.012 43.4453 290.078C43.4453 296.141 38.5078 301.078 32.4375 301.078ZM143.539 237.23C137.469 237.23 132.531 232.301 132.531 226.23C132.531 220.16 137.469 215.219 143.539 215.219C149.605 215.219 154.543 220.16 154.543 226.23C154.543 232.301 149.605 237.23 143.539 237.23ZM234.453 99.3008C228.387 99.3008 223.449 94.3594 223.449 88.2891C223.449 82.2188 228.387 77.2812 234.453 77.2812C240.523 77.2812 245.457 82.2188 245.457 88.2891C245.457 94.3594 240.523 99.3008 234.453 99.3008ZM351.148 109.66C351.148 103.602 356.078 98.6602 362.148 98.6602C368.219 98.6602 373.16 103.602 373.16 109.66C373.16 115.73 368.219 120.672 362.148 120.672C356.078 120.672 351.148 115.73 351.148 109.66ZM453.07 215.219C459.141 215.219 464.07 220.16 464.07 226.23C464.07 232.301 459.141 237.23 453.07 237.23C447 237.23 442.059 232.301 442.059 226.23C442.059 220.16 447 215.219 453.07 215.219ZM564.16 257.699C550.059 257.699 538.059 266.781 533.629 279.391H359.672L375.73 236.91H422.539C426.969 249.531 438.961 258.609 453.07 258.609C470.922 258.609 485.449 244.078 485.449 226.23C485.449 208.371 470.922 193.852 453.07 193.852C438.961 193.852 426.969 202.93 422.539 215.539H360.961L336.812 279.391H308.988V225.91L372.84 201.77V140.191C385.449 135.762 394.531 123.77 394.531 109.66C394.531 91.8086 380 77.2812 362.148 77.2812C344.301 77.2812 329.77 91.8086 329.77 109.66C329.77 123.77 338.852 135.762 351.461 140.191V187L308.988 203.07V63.2891C321.598 58.8594 330.68 46.8711 330.68 32.7617C330.68 14.9102 316.152 0.378906 298.301 0.378906C280.445 0.378906 265.922 14.9102 265.922 32.7617C265.922 46.8711 275.004 58.8594 287.613 63.2891V181.691L245.141 165.621V118.82C257.75 114.391 266.832 102.391 266.832 88.2891C266.832 70.4297 252.309 55.9102 234.453 55.9102C216.602 55.9102 202.074 70.4297 202.074 88.2891C202.074 102.391 211.156 114.391 223.77 118.82V180.391L287.613 204.539V279.391H259.789L235.641 215.539H174.066C169.637 202.93 157.641 193.852 143.539 193.852C125.684 193.852 111.156 208.371 111.156 226.23C111.156 244.078 125.684 258.609 143.539 258.609C157.641 258.609 169.637 249.531 174.066 236.91H220.871L236.938 279.391H62.9688C58.5391 266.781 46.5469 257.699 32.4375 257.699C14.5859 257.699 0.0625 272.219 0.0625 290.078C0.0625 307.93 14.5859 322.449 32.4375 322.449C46.5469 322.449 58.5391 313.371 62.9688 300.762H194.191L178.125 343.238H131.316C126.891 330.629 114.895 321.539 100.789 321.539C82.9375 321.539 68.4102 336.07 68.4102 353.93C68.4102 371.781 82.9375 386.301 100.789 386.301C114.895 386.301 126.891 377.219 131.316 364.609H192.895L217.043 300.762H287.613V575.691C278.355 578.941 271.023 586.27 267.773 595.531H227.027C222.602 582.922 210.605 573.828 196.5 573.828C178.648 573.828 164.121 588.359 164.121 606.219C164.121 624.07 178.648 638.59 196.5 638.59C210.605 638.59 222.602 629.512 227.027 616.898H267.773C272.199 629.512 284.195 638.59 298.301 638.59C312.406 638.59 324.398 629.512 328.828 616.898H369.57C374 629.512 386 638.59 400.102 638.59C417.961 638.59 432.48 624.07 432.48 606.219C432.48 588.359 417.961 573.828 400.102 573.828C386 573.828 374 582.922 369.57 595.531H328.828C325.578 586.27 318.246 578.941 308.988 575.691V300.762H379.559L403.711 364.609H465.289C469.711 377.219 481.711 386.301 495.809 386.301C513.672 386.301 528.191 371.781 528.191 353.93C528.191 336.07 513.672 321.539 495.809 321.539C481.711 321.539 469.711 330.629 465.289 343.238H418.48L402.41 300.762H533.629C538.059 313.371 550.059 322.449 564.16 322.449C582.02 322.449 596.539 307.93 596.539 290.078C596.539 272.219 582.02 257.699 564.16 257.699Z" fill="white"/>
</mask>
<g mask="url(#mask2_68_67)">
<path d="M0.0625 0.378906V638.59H596.539V0.378906H0.0625Z" fill="url(#paint0_linear_68_67)"/>
</g>
</g>
</g>
<defs>
<linearGradient id="paint0_linear_68_67" x1="0.062" y1="319.49" x2="596.54" y2="319.49" gradientUnits="userSpaceOnUse">
<stop stop-color="#51AEE5"/>
<stop offset="0.00390625" stop-color="#51ADE5"/>
<stop offset="0.0078125" stop-color="#50ACE4"/>
<stop offset="0.0117188" stop-color="#50ABE4"/>
<stop offset="0.015625" stop-color="#4FAAE3"/>
<stop offset="0.0195312" stop-color="#4FA9E3"/>
<stop offset="0.0234375" stop-color="#4EA8E2"/>
<stop offset="0.0273438" stop-color="#4DA7E2"/>
<stop offset="0.03125" stop-color="#4CA6E1"/>
<stop offset="0.0351562" stop-color="#4CA5E1"/>
<stop offset="0.0390625" stop-color="#4CA4E0"/>
<stop offset="0.0429688" stop-color="#4BA3DF"/>
<stop offset="0.046875" stop-color="#4BA2DF"/>
<stop offset="0.0507813" stop-color="#4BA1DE"/>
<stop offset="0.0546875" stop-color="#4AA0DE"/>
<stop offset="0.0585938" stop-color="#4A9FDD"/>
<stop offset="0.0625" stop-color="#499EDC"/>
<stop offset="0.0664062" stop-color="#499DDC"/>
<stop offset="0.0703125" stop-color="#489CDB"/>
<stop offset="0.0742188" stop-color="#489BDB"/>
<stop offset="0.078125" stop-color="#489ADA"/>
<stop offset="0.0820312" stop-color="#4799DA"/>
<stop offset="0.0859375" stop-color="#4798D9"/>
<stop offset="0.0898438" stop-color="#4797D8"/>
<stop offset="0.09375" stop-color="#4796D8"/>
<stop offset="0.0976563" stop-color="#4695D7"/>
<stop offset="0.101563" stop-color="#4694D7"/>
<stop offset="0.105469" stop-color="#4693D6"/>
<stop offset="0.109375" stop-color="#4592D5"/>
<stop offset="0.113281" stop-color="#4591D5"/>
<stop offset="0.117188" stop-color="#4490D4"/>
<stop offset="0.121094" stop-color="#448FD4"/>
<stop offset="0.125" stop-color="#438ED3"/>
<stop offset="0.128906" stop-color="#438DD2"/>
<stop offset="0.132812" stop-color="#438CD2"/>
<stop offset="0.136719" stop-color="#428BD1"/>
<stop offset="0.140625" stop-color="#428AD1"/>
<stop offset="0.144531" stop-color="#4189D0"/>
<stop offset="0.148438" stop-color="#4188CF"/>
<stop offset="0.152344" stop-color="#4187CF"/>
<stop offset="0.15625" stop-color="#4086CE"/>
<stop offset="0.160156" stop-color="#4085CE"/>
<stop offset="0.164062" stop-color="#3F84CD"/>
<stop offset="0.167969" stop-color="#3F83CD"/>
<stop offset="0.171875" stop-color="#3E82CC"/>
<stop offset="0.175781" stop-color="#3E81CB"/>
<stop offset="0.179688" stop-color="#3D80CB"/>
<stop offset="0.183594" stop-color="#3D7FCA"/>
<stop offset="0.1875" stop-color="#3D7EC9"/>
<stop offset="0.191406" stop-color="#3C7DC9"/>
<stop offset="0.195313" stop-color="#3C7CC8"/>
<stop offset="0.199219" stop-color="#3C7BC8"/>
<stop offset="0.203125" stop-color="#3C7AC7"/>
<stop offset="0.207031" stop-color="#3C79C6"/>
<stop offset="0.210938" stop-color="#3B79C6"/>
<stop offset="0.214844" stop-color="#3B77C5"/>
<stop offset="0.21875" stop-color="#3A76C4"/>
<stop offset="0.222656" stop-color="#3A75C4"/>
<stop offset="0.226562" stop-color="#3A74C3"/>
<stop offset="0.230469" stop-color="#3973C2"/>
<stop offset="0.234375" stop-color="#3972C2"/>
<stop offset="0.238281" stop-color="#3971C1"/>
<stop offset="0.242188" stop-color="#3970C0"/>
<stop offset="0.246094" stop-color="#396FC0"/>
<stop offset="0.25" stop-color="#386FBF"/>
<stop offset="0.253906" stop-color="#386EBF"/>
<stop offset="0.257812" stop-color="#386DBE"/>
<stop offset="0.261719" stop-color="#386CBD"/>
<stop offset="0.265625" stop-color="#376ABD"/>
<stop offset="0.269531" stop-color="#3769BC"/>
<stop offset="0.273437" stop-color="#3768BB"/>
<stop offset="0.277344" stop-color="#3667BB"/>
<stop offset="0.28125" stop-color="#3666BA"/>
<stop offset="0.285156" stop-color="#3666B9"/>
<stop offset="0.289062" stop-color="#3665B9"/>
<stop offset="0.292969" stop-color="#3564B8"/>
<stop offset="0.296875" stop-color="#3563B7"/>
<stop offset="0.300781" stop-color="#3562B7"/>
<stop offset="0.304688" stop-color="#3461B6"/>
<stop offset="0.308594" stop-color="#3460B5"/>
<stop offset="0.3125" stop-color="#345FB5"/>
<stop offset="0.316406" stop-color="#345EB4"/>
<stop offset="0.320312" stop-color="#345DB3"/>
<stop offset="0.324219" stop-color="#335CB3"/>
<stop offset="0.328125" stop-color="#335BB2"/>
<stop offset="0.332031" stop-color="#335AB1"/>
<stop offset="0.335938" stop-color="#3259B1"/>
<stop offset="0.339844" stop-color="#3258B0"/>
<stop offset="0.34375" stop-color="#3258B0"/>
<stop offset="0.347656" stop-color="#3257AF"/>
<stop offset="0.351562" stop-color="#3356AE"/>
<stop offset="0.355469" stop-color="#3255AD"/>
<stop offset="0.359375" stop-color="#3254AD"/>
<stop offset="0.363281" stop-color="#3153AC"/>
<stop offset="0.367188" stop-color="#3152AB"/>
<stop offset="0.371094" stop-color="#3051AB"/>
<stop offset="0.375" stop-color="#3051AA"/>
<stop offset="0.378906" stop-color="#3050A9"/>
<stop offset="0.382813" stop-color="#304FA9"/>
<stop offset="0.386719" stop-color="#304EA8"/>
<stop offset="0.390625" stop-color="#304DA7"/>
<stop offset="0.394531" stop-color="#2F4CA6"/>
<stop offset="0.398438" stop-color="#2F4BA5"/>
<stop offset="0.402344" stop-color="#2F4BA4"/>
<stop offset="0.40625" stop-color="#2F4AA4"/>
<stop offset="0.410156" stop-color="#2F49A3"/>
<stop offset="0.414063" stop-color="#2E48A2"/>
<stop offset="0.417969" stop-color="#2E48A2"/>
<stop offset="0.421875" stop-color="#2E47A1"/>
<stop offset="0.425781" stop-color="#2E46A0"/>
<stop offset="0.429688" stop-color="#2E459F"/>
<stop offset="0.433594" stop-color="#2E459F"/>
<stop offset="0.4375" stop-color="#2E449E"/>
<stop offset="0.441406" stop-color="#2E439D"/>
<stop offset="0.445312" stop-color="#2E439C"/>
<stop offset="0.449219" stop-color="#2D429C"/>
<stop offset="0.453125" stop-color="#2D419B"/>
<stop offset="0.457031" stop-color="#2D419A"/>
<stop offset="0.460938" stop-color="#2C4099"/>
<stop offset="0.464844" stop-color="#2C3F98"/>
<stop offset="0.46875" stop-color="#2C3E97"/>
<stop offset="0.472656" stop-color="#2C3E96"/>
<stop offset="0.476562" stop-color="#2C3D95"/>
<stop offset="0.480469" stop-color="#2C3C95"/>
<stop offset="0.484375" stop-color="#2C3B94"/>
<stop offset="0.488281" stop-color="#2C3B93"/>
<stop offset="0.492188" stop-color="#2C3A93"/>
<stop offset="0.496094" stop-color="#2C3A92"/>
<stop offset="0.5" stop-color="#2C3991"/>
<stop offset="0.503906" stop-color="#2D3891"/>
<stop offset="0.507812" stop-color="#2F3891"/>
<stop offset="0.511719" stop-color="#2F3791"/>
<stop offset="0.515625" stop-color="#303791"/>
<stop offset="0.519531" stop-color="#313691"/>
<stop offset="0.523438" stop-color="#333691"/>
<stop offset="0.527344" stop-color="#343590"/>
<stop offset="0.53125" stop-color="#353590"/>
<stop offset="0.535156" stop-color="#363590"/>
<stop offset="0.539062" stop-color="#373590"/>
<stop offset="0.542969" stop-color="#383490"/>
<stop offset="0.546875" stop-color="#393490"/>
<stop offset="0.550781" stop-color="#3A3490"/>
<stop offset="0.554687" stop-color="#3B3490"/>
<stop offset="0.558594" stop-color="#3C3390"/>
<stop offset="0.5625" stop-color="#3E338F"/>
<stop offset="0.566406" stop-color="#3F328F"/>
<stop offset="0.570312" stop-color="#40328F"/>
<stop offset="0.574219" stop-color="#41328E"/>
<stop offset="0.578125" stop-color="#43318E"/>
<stop offset="0.582031" stop-color="#44318E"/>
<stop offset="0.585937" stop-color="#45318E"/>
<stop offset="0.589844" stop-color="#47308E"/>
<stop offset="0.59375" stop-color="#48308E"/>
<stop offset="0.597656" stop-color="#4A308E"/>
<stop offset="0.601562" stop-color="#4B308D"/>
<stop offset="0.605469" stop-color="#4C2F8D"/>
<stop offset="0.609375" stop-color="#4E2F8D"/>
<stop offset="0.613281" stop-color="#4F2E8D"/>
<stop offset="0.617187" stop-color="#502E8D"/>
<stop offset="0.621094" stop-color="#522E8D"/>
<stop offset="0.625" stop-color="#532D8C"/>
<stop offset="0.628906" stop-color="#552D8C"/>
<stop offset="0.632812" stop-color="#562D8C"/>
<stop offset="0.636719" stop-color="#572D8C"/>
<stop offset="0.640625" stop-color="#582D8C"/>
<stop offset="0.644531" stop-color="#5A2C8C"/>
<stop offset="0.648437" stop-color="#5C2C8C"/>
<stop offset="0.652344" stop-color="#5E2B8C"/>
<stop offset="0.65625" stop-color="#5F2B8C"/>
<stop offset="0.660156" stop-color="#612A8B"/>
<stop offset="0.664062" stop-color="#622A8B"/>
<stop offset="0.667969" stop-color="#642A8B"/>
<stop offset="0.671875" stop-color="#65298A"/>
<stop offset="0.675781" stop-color="#67298A"/>
<stop offset="0.679688" stop-color="#68298A"/>
<stop offset="0.683594" stop-color="#6A288A"/>
<stop offset="0.6875" stop-color="#6C288A"/>
<stop offset="0.691406" stop-color="#6D278A"/>
<stop offset="0.695313" stop-color="#6F278A"/>
<stop offset="0.699219" stop-color="#71268A"/>
<stop offset="0.703125" stop-color="#72268A"/>
<stop offset="0.707031" stop-color="#742689"/>
<stop offset="0.710938" stop-color="#752589"/>
<stop offset="0.714844" stop-color="#772589"/>
<stop offset="0.71875" stop-color="#792589"/>
<stop offset="0.722656" stop-color="#7A2589"/>
<stop offset="0.726563" stop-color="#7C2589"/>
<stop offset="0.730469" stop-color="#7E2489"/>
<stop offset="0.734375" stop-color="#7F2489"/>
<stop offset="0.738281" stop-color="#812488"/>
<stop offset="0.742188" stop-color="#832388"/>
<stop offset="0.746094" stop-color="#852388"/>
<stop offset="0.75" stop-color="#862388"/>
<stop offset="0.753906" stop-color="#882287"/>
<stop offset="0.757813" stop-color="#892287"/>
<stop offset="0.761719" stop-color="#8B2287"/>
<stop offset="0.765625" stop-color="#8D2187"/>
<stop offset="0.769531" stop-color="#8E2187"/>
<stop offset="0.773438" stop-color="#902086"/>
<stop offset="0.777344" stop-color="#922086"/>
<stop offset="0.78125" stop-color="#941F86"/>
<stop offset="0.785156" stop-color="#961F86"/>
<stop offset="0.789063" stop-color="#971F86"/>
<stop offset="0.792969" stop-color="#991E86"/>
<stop offset="0.796875" stop-color="#9B1E86"/>
<stop offset="0.800781" stop-color="#9C1E85"/>
<stop offset="0.804688" stop-color="#9E1E85"/>
<stop offset="0.808594" stop-color="#9F1D85"/>
<stop offset="0.8125" stop-color="#A11D85"/>
<stop offset="0.816406" stop-color="#A21D85"/>
<stop offset="0.820313" stop-color="#A41D85"/>
<stop offset="0.824219" stop-color="#A51D84"/>
<stop offset="0.828125" stop-color="#A71D84"/>
<stop offset="0.832031" stop-color="#A81D84"/>
<stop offset="0.835938" stop-color="#AA1D84"/>
<stop offset="0.839844" stop-color="#AC1C83"/>
<stop offset="0.84375" stop-color="#AE1C83"/>
<stop offset="0.847656" stop-color="#AF1B83"/>
<stop offset="0.851563" stop-color="#B11A82"/>
<stop offset="0.855469" stop-color="#B31A82"/>
<stop offset="0.859375" stop-color="#B41A82"/>
<stop offset="0.863281" stop-color="#B61A82"/>
<stop offset="0.867188" stop-color="#B71A82"/>
<stop offset="0.871094" stop-color="#B91A82"/>
<stop offset="0.875" stop-color="#BB1A82"/>
<stop offset="0.878906" stop-color="#BC1982"/>
<stop offset="0.882812" stop-color="#BE1982"/>
<stop offset="0.886719" stop-color="#C01881"/>
<stop offset="0.890625" stop-color="#C11881"/>
<stop offset="0.894531" stop-color="#C31781"/>
<stop offset="0.898438" stop-color="#C51781"/>
<stop offset="0.902344" stop-color="#C61781"/>
<stop offset="0.90625" stop-color="#C81780"/>
<stop offset="0.910156" stop-color="#C91780"/>
<stop offset="0.914062" stop-color="#CB1780"/>
<stop offset="0.917969" stop-color="#CC1780"/>
<stop offset="0.921875" stop-color="#CE1780"/>
<stop offset="0.925781" stop-color="#D01680"/>
<stop offset="0.929687" stop-color="#D2157F"/>
<stop offset="0.933594" stop-color="#D3157F"/>
<stop offset="0.9375" stop-color="#D5147F"/>
<stop offset="0.941406" stop-color="#D6147E"/>
<stop offset="0.945312" stop-color="#D8147E"/>
<stop offset="0.949219" stop-color="#D9147E"/>
<stop offset="0.953125" stop-color="#DA147D"/>
<stop offset="0.957031" stop-color="#DC137E"/>
<stop offset="0.960937" stop-color="#DD137E"/>
<stop offset="0.964844" stop-color="#DF137D"/>
<stop offset="0.96875" stop-color="#E0127D"/>
<stop offset="0.972656" stop-color="#E2137D"/>
<stop offset="0.976562" stop-color="#E3137D"/>
<stop offset="0.980469" stop-color="#E5137D"/>
<stop offset="0.984375" stop-color="#E6127C"/>
<stop offset="0.988281" stop-color="#E8127C"/>
<stop offset="0.992187" stop-color="#E9127C"/>
<stop offset="0.996094" stop-color="#EB127C"/>
<stop offset="1" stop-color="#EC127C"/>
</linearGradient>
</defs>
</svg>
