<svg width="2518" height="1394" viewBox="0 0 2518 1394" fill="none" xmlns="http://www.w3.org/2000/svg">
<path d="M846.449 1046.66C836.308 1099.55 627.758 1111.36 468.851 1087.77C222.516 1051.2 -14.1524 913.281 1.45303 854.629C15.8476 800.539 244.512 814.738 377.996 836.789C607.73 874.738 858.101 985.949 846.449 1046.66Z" fill="#68A78E"/>
<path d="M673.34 1010.05C632.387 1045.03 462.113 924.031 352.727 806.379C183.149 624 84.4102 368.488 133.227 332.422C178.238 299.16 347.984 453.031 438.481 553.609C594.223 726.699 720.344 969.91 673.34 1010.05Z" fill="#68A78E"/>
<path d="M782.578 1006.65C746.352 1024.15 646.254 904.422 589.52 798.641C501.57 634.68 478.684 431.301 520.805 414.488C559.641 399 653.121 542.391 699.441 632.238C779.16 786.871 824.16 986.551 782.578 1006.65Z" fill="#68A78E"/>
<path d="M172.078 886.641C183.871 891.66 195.711 896.559 207.594 901.352C219.484 906.129 231.426 910.77 243.406 915.32C255.391 919.852 267.406 924.289 279.473 928.602C291.551 932.871 303.648 937.09 315.809 941.121C327.965 945.16 340.156 949.09 352.387 952.898C364.605 956.75 376.891 960.379 389.203 963.922C401.48 967.57 413.871 970.84 426.219 974.238C432.406 975.898 438.621 977.449 444.82 979.059L454.125 981.449L463.461 983.719L482.133 988.25L500.867 992.512C507.105 993.969 513.379 995.27 519.641 996.602C525.91 997.91 532.16 999.32 538.453 1000.52C563.551 1005.67 588.797 1010.06 614.078 1014.21C639.367 1018.34 664.762 1021.79 690.203 1024.83C715.645 1027.91 741.148 1030.47 766.699 1032.5C741.129 1030.71 715.598 1028.39 690.121 1025.56C664.648 1022.67 639.227 1019.34 613.898 1015.35C563.234 1007.45 512.918 997.34 463.105 985.172L453.766 982.891L444.457 980.48C438.254 978.859 432.039 977.301 425.852 975.621C413.496 972.199 401.105 968.91 388.824 965.23C376.508 961.672 364.223 958.012 352 954.141C345.879 952.238 339.785 950.25 333.684 948.289C327.602 946.27 321.508 944.281 315.445 942.199C291.16 933.98 267.059 925.23 243.145 916C231.203 911.328 219.305 906.578 207.457 901.691C195.617 896.781 183.82 891.77 172.078 886.641Z" fill="#515151"/>
<path d="M560.812 500.172C564.27 512.512 567.844 524.82 571.535 537.09C575.242 549.352 579.082 561.578 583.023 573.77C586.977 585.961 591.023 598.109 595.203 610.219C599.418 622.32 603.684 634.398 608.145 646.41C612.59 658.422 617.141 670.398 621.812 682.328C626.445 694.27 631.293 706.129 636.227 717.949C641.051 729.82 646.246 741.531 651.312 753.289C653.883 759.16 656.559 764.98 659.18 770.82L663.129 779.578L667.195 788.289L675.332 805.691L683.715 822.98C686.473 828.762 689.387 834.469 692.258 840.191C695.156 845.898 697.961 851.66 700.957 857.32C712.629 880.129 724.988 902.578 737.551 924.91C750.141 947.23 763.32 969.211 776.852 990.969C790.352 1012.74 804.289 1034.25 818.68 1055.46C804.09 1034.39 789.941 1013.01 776.219 991.359C762.559 969.672 749.27 947.738 736.551 925.48C711.043 881 687.48 835.398 665.836 788.922L661.781 780.199L657.844 771.43C655.234 765.57 652.563 759.75 650.004 753.871C644.953 742.09 639.777 730.359 634.969 718.469C630.051 706.629 625.223 694.762 620.605 682.801C618.258 676.828 616 670.84 613.723 664.84C611.492 658.84 609.238 652.84 607.066 646.801C598.309 622.711 590.07 598.43 582.328 573.988C578.504 561.762 574.773 549.488 571.188 537.191C567.613 524.879 564.152 512.539 560.812 500.172Z" fill="#515151"/>
<path d="M229.113 464.121C252.871 486.59 276.289 509.441 299.266 532.719C322.191 556.059 344.703 579.789 366.809 603.91C388.891 628.039 410.547 652.57 431.773 677.461C442.406 689.891 452.895 702.441 463.266 715.09C468.469 721.398 473.676 727.711 478.773 734.102C483.891 740.48 489.055 746.828 494.129 753.238C514.406 778.91 534.176 804.988 553.551 831.34C572.938 857.691 591.797 884.43 610.191 911.48C628.594 938.531 646.539 965.879 663.98 993.551C681.367 1021.26 698.262 1049.28 714.652 1077.58C698.051 1049.4 680.949 1021.52 663.359 993.949C645.836 966.34 627.836 939.031 609.371 912.039C590.91 885.051 571.988 858.371 552.547 832.078C533.109 805.789 513.277 779.789 492.957 754.172C487.898 747.75 482.754 741.391 477.656 735C472.578 728.602 467.391 722.281 462.203 715.961C451.871 703.289 441.418 690.719 430.828 678.262C409.672 653.328 388.086 628.762 366.074 604.578C344.043 580.41 321.586 556.641 298.746 533.23C275.949 509.781 252.703 486.77 229.113 464.121Z" fill="#515151"/>
<path d="M2170.92 1160.28C2206.77 1170.76 2247.73 1131.97 2300.24 1082.24C2342.45 1042.27 2410.14 978.16 2409.49 894.949C2409.14 850.238 2389.21 820.328 2409.49 790.16C2424.81 767.379 2444.71 771.762 2467.46 754.488C2524.55 711.16 2539.83 585.879 2476.52 514.691C2468.22 505.351 2435.68 475.648 2384.84 479.48C2339.68 482.871 2303.74 506.25 2290.21 543.328C2273.13 590.121 2290.94 613.41 2271.25 647.469C2251.22 682.129 2209.18 677.851 2177.61 694.289C2056.73 757.238 2074.19 1132 2170.92 1160.28Z" fill="#66A88E"/>
<path d="M2398.34 620.711C2367.78 655.059 2339.35 691.301 2313.42 729.238C2287.5 767.191 2263.85 806.699 2243.15 847.719C2232.73 868.199 2222.89 888.969 2213.82 910.09C2204.77 931.199 2196.43 952.621 2188.69 974.262C2180.97 995.898 2173.97 1017.8 2167.69 1039.91C2161.36 1062 2155.75 1084.3 2150.86 1106.77C2155.51 1084.25 2160.88 1061.88 2166.98 1039.71C2173.12 1017.54 2180.01 995.59 2187.6 973.871C2195.18 952.148 2203.57 930.719 2212.57 909.551C2221.6 888.391 2231.42 867.57 2241.81 847.039C2252.23 826.531 2263.35 806.379 2275.16 786.629C2286.96 766.879 2299.36 747.488 2312.47 728.59C2325.57 709.68 2339.26 691.18 2353.58 673.18C2367.94 655.219 2382.88 637.719 2398.34 620.711Z" fill="#515151"/>
<path d="M2222.2 961.84C2229.26 961.559 2236.3 960.922 2243.27 959.828C2250.24 958.77 2257.15 957.32 2263.94 955.441C2270.71 953.512 2277.41 951.34 2283.89 948.578C2290.37 945.859 2296.67 942.699 2302.7 939.09C2314.83 931.969 2325.76 922.871 2335.13 912.379C2339.83 907.141 2344.1 901.52 2347.94 895.609C2351.82 889.719 2355.19 883.512 2358.21 877.121C2355.5 883.648 2352.25 889.961 2348.56 896C2344.83 902.02 2340.63 907.762 2336 913.141C2326.72 923.879 2315.66 933.078 2303.47 940.379C2291.23 947.59 2277.96 953.02 2264.23 956.551C2257.36 958.309 2250.39 959.641 2243.37 960.551C2236.34 961.398 2229.27 961.898 2222.2 961.84Z" fill="#515151"/>
<path d="M2219.97 738.879C2214.5 744.762 2209.33 750.91 2204.58 757.379C2202.2 760.609 2199.91 763.898 2197.72 767.262C2195.57 770.629 2193.47 774.051 2191.52 777.551C2189.58 781.051 2187.71 784.59 2185.98 788.199C2185.55 789.102 2185.08 789.988 2184.69 790.91L2183.5 793.672L2181.11 799.18L2180.52 800.551L2180 801.961L2178.97 804.781L2176.92 810.422C2176.31 812.328 2175.76 814.25 2175.17 816.172L2174.31 819.039L2173.88 820.48L2173.52 821.93L2172.07 827.762C2171.84 828.73 2171.57 829.691 2171.36 830.672L2170.79 833.621L2169.64 839.512L2168.77 845.449C2168.11 849.398 2167.87 853.41 2167.44 857.391C2167.29 859.379 2167.22 861.379 2167.09 863.379L2166.91 866.379L2166.85 869.379C2166.6 877.391 2166.93 885.422 2167.63 893.41C2168.28 901.398 2169.44 909.352 2170.92 917.25C2167.33 901.59 2165.52 885.48 2165.7 869.371L2165.71 866.34L2165.84 863.328C2165.94 861.309 2166.01 859.301 2166.15 857.289C2166.55 853.281 2166.78 849.25 2167.42 845.27L2168.26 839.281L2169.38 833.34L2169.95 830.371C2170.14 829.379 2170.41 828.41 2170.64 827.422L2172.07 821.551L2172.44 820.078L2172.88 818.629L2173.77 815.738C2174.37 813.82 2174.94 811.879 2175.56 809.969L2177.67 804.289L2178.72 801.461L2179.25 800.039L2179.85 798.66L2182.29 793.121L2183.5 790.352C2183.91 789.43 2184.38 788.539 2184.81 787.629C2186.57 784 2188.51 780.461 2190.53 776.98C2192.55 773.488 2194.71 770.09 2196.94 766.738C2199.2 763.398 2201.54 760.129 2203.99 756.941C2208.96 750.602 2214.25 744.531 2219.97 738.879Z" fill="#515151"/>
<path d="M705.605 0.878906H2135.65C2167.52 0.878906 2193.35 26.7109 2193.35 58.5781V1393.12H647.906V58.5781C647.906 26.7109 673.738 0.878906 705.605 0.878906Z" fill="#EEECEA"/>
<path d="M2193.35 1392.94H647.906V146.012H2193.35V1392.94Z" fill="white"/>
<path d="M747.352 74.6797C747.352 90.2617 734.719 102.898 719.133 102.898C703.547 102.898 690.91 90.2617 690.91 74.6797C690.91 59.0898 703.547 46.4609 719.133 46.4609C734.719 46.4609 747.352 59.0898 747.352 74.6797Z" fill="#EB422E"/>
<path d="M834.699 74.6797C834.699 90.2617 822.07 102.898 806.48 102.898C790.898 102.898 778.262 90.2617 778.262 74.6797C778.262 59.0898 790.898 46.4609 806.48 46.4609C822.07 46.4609 834.699 59.0898 834.699 74.6797Z" fill="#68A58C"/>
<path d="M926.09 74.6797C926.09 90.2617 913.449 102.898 897.871 102.898C882.281 102.898 869.641 90.2617 869.641 74.6797C869.641 59.0898 882.281 46.4609 897.871 46.4609C913.449 46.4609 926.09 59.0898 926.09 74.6797Z" fill="#F4A72B"/>
<path d="M1014.78 327.441C1014.78 407.59 949.801 472.57 869.641 472.57C789.488 472.57 724.508 407.59 724.508 327.441C724.508 247.281 789.488 182.301 869.641 182.301C949.801 182.301 1014.78 247.281 1014.78 327.441Z" stroke="#D04F59" stroke-width="2" stroke-miterlimit="10"/>
<path d="M985.102 239.5C993.051 249.961 1009.52 274.551 1013.77 310.359C1015.23 322.68 1017.34 353.91 1001.41 388.352C991.48 409.801 978.328 424.352 969.512 432.73" stroke="#4D57A5" stroke-width="2" stroke-miterlimit="10"/>
<path d="M1092.39 273.871H1063.22C1056.55 273.871 1051.14 268.469 1051.14 261.801V232.629C1051.14 225.961 1056.55 220.559 1063.22 220.559H1092.39C1099.06 220.559 1104.46 225.961 1104.46 232.629V261.801C1104.46 268.469 1099.06 273.871 1092.39 273.871Z" fill="#D04F59"/>
<path d="M1092.39 404.039H1063.22C1056.55 404.039 1051.14 398.629 1051.14 391.961V362.801C1051.14 356.129 1056.55 350.719 1063.22 350.719H1092.39C1099.06 350.719 1104.46 356.129 1104.46 362.801V391.961C1104.46 398.629 1099.06 404.039 1092.39 404.039Z" fill="#4D57A5"/>
<path d="M1464.15 243.359H1122.67C1118.5 243.359 1115.13 239.98 1115.13 235.82V231.949C1115.13 227.789 1118.5 224.41 1122.67 224.41H1464.15C1468.32 224.41 1471.7 227.789 1471.7 231.949V235.82C1471.7 239.98 1468.32 243.359 1464.15 243.359Z" fill="#A6A8AB"/>
<path d="M1336.49 270.02H1122.67C1118.5 270.02 1115.13 266.641 1115.13 262.48V258.609C1115.13 254.449 1118.5 251.07 1122.67 251.07H1336.49C1340.65 251.07 1344.03 254.449 1344.03 258.609V262.48C1344.03 266.641 1340.65 270.02 1336.49 270.02Z" fill="#A6A8AB"/>
<path d="M1477.71 375.172H1136.22C1132.06 375.172 1128.68 371.789 1128.68 367.621V363.762C1128.68 359.602 1132.06 356.219 1136.22 356.219H1477.71C1481.87 356.219 1485.25 359.602 1485.25 363.762V367.621C1485.25 371.789 1481.87 375.172 1477.71 375.172Z" fill="#A6A8AB"/>
<path d="M1350.04 401.828H1136.22C1132.06 401.828 1128.68 398.449 1128.68 394.281V390.422C1128.68 386.262 1132.06 382.879 1136.22 382.879H1350.04C1354.21 382.879 1357.58 386.262 1357.58 390.422V394.281C1357.58 398.449 1354.21 401.828 1350.04 401.828Z" fill="#A6A8AB"/>
<path d="M971.371 730.289H767.922C743.941 730.289 724.508 710.852 724.508 686.871V584.641C724.508 560.66 743.941 541.23 767.922 541.23H971.371C995.34 541.23 1014.78 560.66 1014.78 584.641V686.871C1014.78 710.852 995.34 730.289 971.371 730.289Z" fill="#FDBD58"/>
<path d="M1477.71 562.281H1060.59C1056.42 562.281 1053.04 558.898 1053.04 554.738V550.871C1053.04 546.711 1056.42 543.328 1060.59 543.328H1477.71C1481.87 543.328 1485.25 546.711 1485.25 550.871V554.738C1485.25 558.898 1481.87 562.281 1477.71 562.281Z" fill="#A6A8AB"/>
<path d="M1477.71 597H1060.59C1056.42 597 1053.04 593.629 1053.04 589.461V585.602C1053.04 581.43 1056.42 578.059 1060.59 578.059H1477.71C1481.87 578.059 1485.25 581.43 1485.25 585.602V589.461C1485.25 593.629 1481.87 597 1477.71 597Z" fill="#A6A8AB"/>
<path d="M2095.77 662.102H1616.99C1612.82 662.102 1609.44 658.719 1609.44 654.551V650.691C1609.44 646.52 1612.82 643.148 1616.99 643.148H2095.77C2099.94 643.148 2103.31 646.52 2103.31 650.691V654.551C2103.31 658.719 2099.94 662.102 2095.77 662.102Z" fill="#A6A8AB"/>
<path d="M2082.46 606.039H1630.3C1618.78 606.039 1609.44 596.699 1609.44 585.18V554.02C1609.44 542.5 1618.78 533.16 1630.3 533.16H2082.46C2093.98 533.16 2103.31 542.5 2103.31 554.02V585.18C2103.31 596.699 2093.98 606.039 2082.46 606.039Z" fill="#929497"/>
<path d="M2095.77 709.23H1616.99C1612.82 709.23 1609.44 705.852 1609.44 701.691V697.82C1609.44 693.66 1612.82 690.281 1616.99 690.281H2095.77C2099.94 690.281 2103.31 693.66 2103.31 697.82V701.691C2103.31 705.852 2099.94 709.23 2095.77 709.23Z" fill="#A6A8AB"/>
<path d="M2095.77 750.789H1616.99C1612.82 750.789 1609.44 747.41 1609.44 743.25V739.391C1609.44 735.219 1612.82 731.84 1616.99 731.84H2095.77C2099.94 731.84 2103.31 735.219 2103.31 739.391V743.25C2103.31 747.41 2099.94 750.789 2095.77 750.789Z" fill="#A6A8AB"/>
<path d="M2095.77 797.922H1616.99C1612.82 797.922 1609.44 794.551 1609.44 790.379V786.52C1609.44 782.352 1612.82 778.98 1616.99 778.98H2095.77C2099.94 778.98 2103.31 782.352 2103.31 786.52V790.379C2103.31 794.551 2099.94 797.922 2095.77 797.922Z" fill="#A6A8AB"/>
<path d="M2095.77 847.551H1616.99C1612.82 847.551 1609.44 844.172 1609.44 840.012V836.148C1609.44 831.98 1612.82 828.602 1616.99 828.602H2095.77C2099.94 828.602 2103.31 831.98 2103.31 836.148V840.012C2103.31 844.172 2099.94 847.551 2095.77 847.551Z" fill="#A6A8AB"/>
<path d="M2095.77 894.68H1616.99C1612.82 894.68 1609.44 891.309 1609.44 887.141V883.281C1609.44 879.109 1612.82 875.73 1616.99 875.73H2095.77C2099.94 875.73 2103.31 879.109 2103.31 883.281V887.141C2103.31 891.309 2099.94 894.68 2095.77 894.68Z" fill="#A6A8AB"/>
<path d="M2095.77 944.309H1616.99C1612.82 944.309 1609.44 940.93 1609.44 936.77V932.898C1609.44 928.738 1612.82 925.359 1616.99 925.359H2095.77C2099.94 925.359 2103.31 928.738 2103.31 932.898V936.77C2103.31 940.93 2099.94 944.309 2095.77 944.309Z" fill="#A6A8AB"/>
<path d="M2095.77 991.441H1616.99C1612.82 991.441 1609.44 988.059 1609.44 983.898V980.039C1609.44 975.871 1612.82 972.488 1616.99 972.488H2095.77C2099.94 972.488 2103.31 975.871 2103.31 980.039V983.898C2103.31 988.059 2099.94 991.441 2095.77 991.441Z" fill="#A6A8AB"/>
<path d="M2055.3 507.852H1650.61C1625.98 507.852 1606.02 487.891 1606.02 463.262V236.969C1606.02 212.34 1625.98 192.379 1650.61 192.379H2055.3C2079.92 192.379 2099.89 212.34 2099.89 236.969V463.262C2099.89 487.891 2079.92 507.852 2055.3 507.852Z" fill="#EED8C4"/>
<path d="M1844.95 338.641H1699.84C1684.69 338.641 1672.4 326.359 1672.4 311.199V253.27C1672.4 238.109 1684.69 225.82 1699.84 225.82H1844.95C1860.11 225.82 1872.4 238.109 1872.4 253.27V311.199C1872.4 326.359 1860.11 338.641 1844.95 338.641Z" fill="#CF5C2A"/>
<path d="M2006.06 338.641H1925.06C1909.9 338.641 1897.61 326.359 1897.61 311.199V253.27C1897.61 238.109 1909.9 225.82 1925.06 225.82H2006.06C2021.22 225.82 2033.51 238.109 2033.51 253.27V311.199C2033.51 326.359 2021.22 338.641 2006.06 338.641Z" fill="#CD8F67"/>
<path d="M1860.96 363.641H2006.06C2021.22 363.641 2033.51 375.93 2033.51 391.09V449.02C2033.51 464.18 2021.22 476.461 2006.06 476.461H1860.96C1845.8 476.461 1833.51 464.18 1833.51 449.02V391.09C1833.51 375.93 1845.8 363.641 1860.96 363.641Z" fill="#FDBD58"/>
<path d="M1699.84 363.641H1780.85C1796.01 363.641 1808.3 375.93 1808.3 391.09V449.02C1808.3 464.18 1796.01 476.461 1780.85 476.461H1699.84C1684.69 476.461 1672.4 464.18 1672.4 449.02V391.09C1672.4 375.93 1684.69 363.641 1699.84 363.641Z" fill="#CD8F67"/>
<mask id="mask0_69_368" style="mask-type:luminance" maskUnits="userSpaceOnUse" x="1917" y="259" width="93" height="44">
<path d="M1917 259H2010V303H1917V259Z" fill="white"/>
</mask>
<g mask="url(#mask0_69_368)">
<mask id="mask1_69_368" style="mask-type:luminance" maskUnits="userSpaceOnUse" x="1917" y="259" width="93" height="44">
<path d="M1985.68 295.48C1988.1 296.969 1991.64 298.211 1995.37 298.211C2000.89 298.211 2004.11 295.301 2004.11 291.078C2004.11 287.172 2001.88 284.941 1996.23 282.762C1989.41 280.34 1985.19 276.809 1985.19 270.91C1985.19 264.398 1990.59 259.559 1998.72 259.559C2003 259.559 2006.1 260.551 2007.96 261.602L2006.47 266.012C2005.11 265.262 2002.32 264.02 1998.53 264.02C1992.82 264.02 1990.65 267.441 1990.65 270.289C1990.65 274.199 1993.19 276.121 1998.96 278.359C2006.04 281.09 2009.64 284.5 2009.64 290.641C2009.64 297.102 2004.86 302.68 1994.99 302.68C1990.96 302.68 1986.55 301.5 1984.32 300.012L1985.68 295.48ZM1955.09 295.48C1957.51 296.969 1961.05 298.211 1964.78 298.211C1970.3 298.211 1973.52 295.301 1973.52 291.078C1973.52 287.172 1971.29 284.941 1965.64 282.762C1958.82 280.34 1954.6 276.809 1954.6 270.91C1954.6 264.398 1960 259.559 1968.13 259.559C1972.41 259.559 1975.51 260.551 1977.37 261.602L1975.88 266.012C1974.52 265.262 1971.72 264.02 1967.94 264.02C1962.23 264.02 1960.06 267.441 1960.06 270.289C1960.06 274.199 1962.6 276.121 1968.37 278.359C1975.45 281.09 1979.05 284.5 1979.05 290.641C1979.05 297.102 1974.27 302.68 1964.4 302.68C1960.37 302.68 1955.96 301.5 1953.73 300.012L1955.09 295.48ZM1949.08 300.699C1947.09 301.691 1943.12 302.68 1938.03 302.68C1926.24 302.68 1917.37 295.238 1917.37 281.52C1917.37 268.43 1926.24 259.559 1939.21 259.559C1944.42 259.559 1947.71 260.672 1949.14 261.422L1947.84 265.82C1945.79 264.828 1942.87 264.09 1939.4 264.09C1929.59 264.09 1923.08 270.352 1923.08 281.34C1923.08 291.578 1928.97 298.148 1939.15 298.148C1942.44 298.148 1945.79 297.469 1947.96 296.422L1949.08 300.699Z" fill="white"/>
</mask>
<g mask="url(#mask1_69_368)">
<mask id="mask2_69_368" style="mask-type:luminance" maskUnits="userSpaceOnUse" x="1917" y="259" width="93" height="44">
<path d="M1985.68 295.48C1988.1 296.969 1991.64 298.211 1995.37 298.211C2000.89 298.211 2004.11 295.301 2004.11 291.078C2004.11 287.172 2001.88 284.941 1996.23 282.762C1989.41 280.34 1985.19 276.809 1985.19 270.91C1985.19 264.398 1990.59 259.559 1998.72 259.559C2003 259.559 2006.1 260.551 2007.96 261.602L2006.47 266.012C2005.11 265.262 2002.32 264.02 1998.53 264.02C1992.82 264.02 1990.65 267.441 1990.65 270.289C1990.65 274.199 1993.19 276.121 1998.96 278.359C2006.04 281.09 2009.64 284.5 2009.64 290.641C2009.64 297.102 2004.86 302.68 1994.99 302.68C1990.96 302.68 1986.55 301.5 1984.32 300.012L1985.68 295.48ZM1955.09 295.48C1957.51 296.969 1961.05 298.211 1964.78 298.211C1970.3 298.211 1973.52 295.301 1973.52 291.078C1973.52 287.172 1971.29 284.941 1965.64 282.762C1958.82 280.34 1954.6 276.809 1954.6 270.91C1954.6 264.398 1960 259.559 1968.13 259.559C1972.41 259.559 1975.51 260.551 1977.37 261.602L1975.88 266.012C1974.52 265.262 1971.72 264.02 1967.94 264.02C1962.23 264.02 1960.06 267.441 1960.06 270.289C1960.06 274.199 1962.6 276.121 1968.37 278.359C1975.45 281.09 1979.05 284.5 1979.05 290.641C1979.05 297.102 1974.27 302.68 1964.4 302.68C1960.37 302.68 1955.96 301.5 1953.73 300.012L1955.09 295.48ZM1949.08 300.699C1947.09 301.691 1943.12 302.68 1938.03 302.68C1926.24 302.68 1917.37 295.238 1917.37 281.52C1917.37 268.43 1926.24 259.559 1939.21 259.559C1944.42 259.559 1947.71 260.672 1949.14 261.422L1947.84 265.82C1945.79 264.828 1942.87 264.09 1939.4 264.09C1929.59 264.09 1923.08 270.352 1923.08 281.34C1923.08 291.578 1928.97 298.148 1939.15 298.148C1942.44 298.148 1945.79 297.469 1947.96 296.422L1949.08 300.699Z" fill="white"/>
</mask>
<g mask="url(#mask2_69_368)">
<path d="M1917.37 259.559V302.68H2009.64V259.559H1917.37Z" fill="white"/>
</g>
</g>
</g>
<mask id="mask3_69_368" style="mask-type:luminance" maskUnits="userSpaceOnUse" x="1691" y="397" width="100" height="43">
<path d="M1691 397H1791V440H1691V397Z" fill="white"/>
</mask>
<g mask="url(#mask3_69_368)">
<mask id="mask4_69_368" style="mask-type:luminance" maskUnits="userSpaceOnUse" x="1691" y="397" width="100" height="43">
<path d="M1770.51 418.512C1771.69 418.82 1773.18 418.941 1774.98 418.941C1781.49 418.941 1785.47 415.781 1785.47 410.012C1785.47 404.488 1781.56 401.82 1775.6 401.82C1773.24 401.82 1771.44 402 1770.51 402.25V418.512ZM1765.11 398.34C1767.72 397.91 1771.13 397.539 1775.48 397.539C1780.81 397.539 1784.72 398.781 1787.2 401.012C1789.5 403 1790.86 406.039 1790.86 409.762C1790.86 413.539 1789.75 416.52 1787.64 418.699C1784.78 421.738 1780.13 423.289 1774.86 423.289C1773.24 423.289 1771.75 423.23 1770.51 422.91V439.672H1765.11V398.34ZM1730.06 397.852V415.352H1750.28V397.852H1755.75V439.672H1750.28V420.059H1730.06V439.672H1724.66V397.852H1730.06ZM1697.05 418.512C1698.22 418.82 1699.71 418.941 1701.51 418.941C1708.03 418.941 1712 415.781 1712 410.012C1712 404.488 1708.09 401.82 1702.13 401.82C1699.77 401.82 1697.98 402 1697.05 402.25V418.512ZM1691.65 398.34C1694.25 397.91 1697.67 397.539 1702.01 397.539C1707.35 397.539 1711.25 398.781 1713.74 401.012C1716.03 403 1717.4 406.039 1717.4 409.762C1717.4 413.539 1716.28 416.52 1714.17 418.699C1711.32 421.738 1706.66 423.289 1701.39 423.289C1699.77 423.289 1698.29 423.23 1697.05 422.91V439.672H1691.65V398.34Z" fill="white"/>
</mask>
<g mask="url(#mask4_69_368)">
<mask id="mask5_69_368" style="mask-type:luminance" maskUnits="userSpaceOnUse" x="1691" y="397" width="100" height="43">
<path d="M1770.51 418.512C1771.69 418.82 1773.18 418.941 1774.98 418.941C1781.49 418.941 1785.47 415.781 1785.47 410.012C1785.47 404.488 1781.56 401.82 1775.6 401.82C1773.24 401.82 1771.44 402 1770.51 402.25V418.512ZM1765.11 398.34C1767.72 397.91 1771.13 397.539 1775.48 397.539C1780.81 397.539 1784.72 398.781 1787.2 401.012C1789.5 403 1790.86 406.039 1790.86 409.762C1790.86 413.539 1789.75 416.52 1787.64 418.699C1784.78 421.738 1780.13 423.289 1774.86 423.289C1773.24 423.289 1771.75 423.23 1770.51 422.91V439.672H1765.11V398.34ZM1730.06 397.852V415.352H1750.28V397.852H1755.75V439.672H1750.28V420.059H1730.06V439.672H1724.66V397.852H1730.06ZM1697.05 418.512C1698.22 418.82 1699.71 418.941 1701.51 418.941C1708.03 418.941 1712 415.781 1712 410.012C1712 404.488 1708.09 401.82 1702.13 401.82C1699.77 401.82 1697.98 402 1697.05 402.25V418.512ZM1691.65 398.34C1694.25 397.91 1697.67 397.539 1702.01 397.539C1707.35 397.539 1711.25 398.781 1713.74 401.012C1716.03 403 1717.4 406.039 1717.4 409.762C1717.4 413.539 1716.28 416.52 1714.17 418.699C1711.32 421.738 1706.66 423.289 1701.39 423.289C1699.77 423.289 1698.29 423.23 1697.05 422.91V439.672H1691.65V398.34Z" fill="white"/>
</mask>
<g mask="url(#mask5_69_368)">
<path d="M1691.65 397.539V439.672H1790.86V397.539H1691.65Z" fill="white"/>
</g>
</g>
</g>
<mask id="mask6_69_368" style="mask-type:luminance" maskUnits="userSpaceOnUse" x="1875" y="397" width="126" height="44">
<path d="M1875 397H2001V441H1875V397Z" fill="white"/>
</mask>
<g mask="url(#mask6_69_368)">
<mask id="mask7_69_368" style="mask-type:luminance" maskUnits="userSpaceOnUse" x="1875" y="397" width="126" height="44">
<path d="M1989.32 422.289L1985.22 410.262C1984.29 407.531 1983.67 405.039 1983.05 402.621H1982.92C1982.3 405.109 1981.62 407.648 1980.81 410.191L1976.72 422.289H1989.32ZM1975.6 426.512L1971.26 439.672H1965.67L1979.88 397.852H1986.4L2000.67 439.672H1994.9L1990.43 426.512H1975.6ZM1946.94 439.672L1933.28 397.852H1939.12L1945.63 418.449C1947.43 424.09 1948.98 429.18 1950.1 434.078H1950.22C1951.4 429.238 1953.14 423.969 1955 418.512L1962.08 397.852H1967.85L1952.89 439.672H1946.94ZM1923.54 422.289L1919.45 410.262C1918.52 407.531 1917.9 405.039 1917.28 402.621H1917.15C1916.53 405.109 1915.85 407.648 1915.04 410.191L1910.95 422.289H1923.54ZM1909.83 426.512L1905.49 439.672H1899.9L1914.11 397.852H1920.63L1934.9 439.672H1929.13L1924.66 426.512H1909.83ZM1888.67 397.852H1894.07V425.828C1894.07 436.941 1888.61 440.352 1881.41 440.352C1879.43 440.352 1877.01 439.922 1875.64 439.359L1876.45 434.949C1877.56 435.391 1879.18 435.762 1880.98 435.762C1885.82 435.762 1888.67 433.59 1888.67 425.398V397.852Z" fill="white"/>
</mask>
<g mask="url(#mask7_69_368)">
<mask id="mask8_69_368" style="mask-type:luminance" maskUnits="userSpaceOnUse" x="1875" y="397" width="126" height="44">
<path d="M1989.32 422.289L1985.22 410.262C1984.29 407.531 1983.67 405.039 1983.05 402.621H1982.92C1982.3 405.109 1981.62 407.648 1980.81 410.191L1976.72 422.289H1989.32ZM1975.6 426.512L1971.26 439.672H1965.67L1979.88 397.852H1986.4L2000.67 439.672H1994.9L1990.43 426.512H1975.6ZM1946.94 439.672L1933.28 397.852H1939.12L1945.63 418.449C1947.43 424.09 1948.98 429.18 1950.1 434.078H1950.22C1951.4 429.238 1953.14 423.969 1955 418.512L1962.08 397.852H1967.85L1952.89 439.672H1946.94ZM1923.54 422.289L1919.45 410.262C1918.52 407.531 1917.9 405.039 1917.28 402.621H1917.15C1916.53 405.109 1915.85 407.648 1915.04 410.191L1910.95 422.289H1923.54ZM1909.83 426.512L1905.49 439.672H1899.9L1914.11 397.852H1920.63L1934.9 439.672H1929.13L1924.66 426.512H1909.83ZM1888.67 397.852H1894.07V425.828C1894.07 436.941 1888.61 440.352 1881.41 440.352C1879.43 440.352 1877.01 439.922 1875.64 439.359L1876.45 434.949C1877.56 435.391 1879.18 435.762 1880.98 435.762C1885.82 435.762 1888.67 433.59 1888.67 425.398V397.852Z" fill="white"/>
</mask>
<g mask="url(#mask8_69_368)">
<path d="M1875.64 397.852V440.352H2000.67V397.852H1875.64Z" fill="white"/>
</g>
</g>
</g>
<mask id="mask9_69_368" style="mask-type:luminance" maskUnits="userSpaceOnUse" x="1703" y="260" width="146" height="43">
<path d="M1703 260H1849V303H1703V260Z" fill="white"/>
</mask>
<g mask="url(#mask9_69_368)">
<mask id="mask10_69_368" style="mask-type:luminance" maskUnits="userSpaceOnUse" x="1703" y="260" width="146" height="43">
<path d="M1825.11 260.238H1830.51V297.531H1848.38V302.059H1825.11V260.238ZM1810.47 283.699C1810.16 277.859 1809.79 270.852 1809.85 265.641H1809.67C1808.24 270.539 1806.5 275.75 1804.39 281.52L1797.01 301.809H1792.91L1786.15 281.891C1784.16 276 1782.49 270.602 1781.31 265.641H1781.18C1781.06 270.852 1780.75 277.859 1780.38 284.129L1779.26 302.059H1774.11L1777.03 260.238H1783.91L1791.05 280.469C1792.79 285.621 1794.21 290.211 1795.27 294.551H1795.46C1796.51 290.328 1798 285.738 1799.86 280.469L1807.31 260.238H1814.2L1816.8 302.059H1811.53L1810.47 283.699ZM1752.33 264.828H1739.61V260.238H1770.57V264.828H1757.79V302.059H1752.33V264.828ZM1709.33 260.238V277.738H1729.56V260.238H1735.02V302.059H1729.56V282.449H1709.33V302.059H1703.93V260.238H1709.33Z" fill="white"/>
</mask>
<g mask="url(#mask10_69_368)">
<mask id="mask11_69_368" style="mask-type:luminance" maskUnits="userSpaceOnUse" x="1703" y="260" width="146" height="43">
<path d="M1825.11 260.238H1830.51V297.531H1848.38V302.059H1825.11V260.238ZM1810.47 283.699C1810.16 277.859 1809.79 270.852 1809.85 265.641H1809.67C1808.24 270.539 1806.5 275.75 1804.39 281.52L1797.01 301.809H1792.91L1786.15 281.891C1784.16 276 1782.49 270.602 1781.31 265.641H1781.18C1781.06 270.852 1780.75 277.859 1780.38 284.129L1779.26 302.059H1774.11L1777.03 260.238H1783.91L1791.05 280.469C1792.79 285.621 1794.21 290.211 1795.27 294.551H1795.46C1796.51 290.328 1798 285.738 1799.86 280.469L1807.31 260.238H1814.2L1816.8 302.059H1811.53L1810.47 283.699ZM1752.33 264.828H1739.61V260.238H1770.57V264.828H1757.79V302.059H1752.33V264.828ZM1709.33 260.238V277.738H1729.56V260.238H1735.02V302.059H1729.56V282.449H1709.33V302.059H1703.93V260.238H1709.33Z" fill="white"/>
</mask>
<g mask="url(#mask11_69_368)">
<path d="M1703.93 260.238V302.059H1848.38V260.238H1703.93Z" fill="white"/>
</g>
</g>
</g>
<path d="M1443.48 878.98V649.172C1443.48 631.98 1429.54 618.039 1412.34 618.039H565.379C548.18 618.039 534.242 631.98 534.242 649.172V1392.94H1443.75V878.98H1443.48Z" fill="#D2D6E2"/>
<path d="M1411.1 1393.12H562.289V701.781H1411.1V1393.12Z" fill="white"/>
<path d="M697.367 790.281H640.125C632.117 790.281 625.625 783.789 625.625 775.781V762.012C625.625 754 632.117 747.512 640.125 747.512H697.367C705.379 747.512 711.871 754 711.871 762.012V775.781C711.871 783.789 705.379 790.281 697.367 790.281Z" fill="#D9727A"/>
<path d="M697.367 878.98H640.125C632.117 878.98 625.625 872.48 625.625 864.469V850.711C625.625 842.699 632.117 836.199 640.125 836.199H697.367C705.379 836.199 711.871 842.699 711.871 850.711V864.469C711.871 872.48 705.379 878.98 697.367 878.98Z" fill="#D9727A"/>
<path d="M697.367 975.73H640.125C632.117 975.73 625.625 969.238 625.625 961.23V947.461C625.625 939.461 632.117 932.961 640.125 932.961H697.367C705.379 932.961 711.871 939.461 711.871 947.461V961.23C711.871 969.238 705.379 975.73 697.367 975.73Z" fill="#D9727A"/>
<path d="M697.367 1080.56H640.125C632.117 1080.56 625.625 1074.06 625.625 1066.05V1052.29C625.625 1044.28 632.117 1037.78 640.125 1037.78H697.367C705.379 1037.78 711.871 1044.28 711.871 1052.29V1066.05C711.871 1074.06 705.379 1080.56 697.367 1080.56Z" fill="#D9727A"/>
<path d="M697.367 1177.31H640.125C632.117 1177.31 625.625 1170.82 625.625 1162.81V1149.04C625.625 1141.04 632.117 1134.54 640.125 1134.54H697.367C705.379 1134.54 711.871 1141.04 711.871 1149.04V1162.81C711.871 1170.82 705.379 1177.31 697.367 1177.31Z" fill="#9AB3DD"/>
<path d="M697.367 1282.14H640.125C632.117 1282.14 625.625 1275.64 625.625 1267.63V1253.87C625.625 1245.86 632.117 1239.36 640.125 1239.36H697.367C705.379 1239.36 711.871 1245.86 711.871 1253.87V1267.63C711.871 1275.64 705.379 1282.14 697.367 1282.14Z" fill="#9AB3DD"/>
<path d="M1371.3 778.84H773.16C767.441 778.84 762.809 774.211 762.809 768.488C762.809 762.77 767.441 758.129 773.16 758.129H1371.3C1377.02 758.129 1381.66 762.77 1381.66 768.488C1381.66 774.211 1377.02 778.84 1371.3 778.84Z" fill="#A6A8AB"/>
<path d="M990.988 867.949H773.16C767.441 867.949 762.809 863.309 762.809 857.59C762.809 851.871 767.441 847.23 773.16 847.23H990.988C996.711 847.23 1001.34 851.871 1001.34 857.59C1001.34 863.309 996.711 867.949 990.988 867.949Z" fill="#A6A8AB"/>
<path d="M1259.09 867.949H1045.3C1039.58 867.949 1034.94 863.309 1034.94 857.59C1034.94 851.871 1039.58 847.23 1045.3 847.23H1259.09C1264.81 847.23 1269.44 851.871 1269.44 857.59C1269.44 863.309 1264.81 867.949 1259.09 867.949Z" fill="#A6A8AB"/>
<path d="M1179.13 964.699H773.16C767.441 964.699 762.809 960.07 762.809 954.352C762.809 948.629 767.441 943.988 773.16 943.988H1179.13C1184.85 943.988 1189.48 948.629 1189.48 954.352C1189.48 960.07 1184.85 964.699 1179.13 964.699Z" fill="#A6A8AB"/>
<path d="M1210.37 1069.53H773.16C767.441 1069.53 762.809 1064.89 762.809 1059.17C762.809 1053.45 767.441 1048.81 773.16 1048.81H1210.37C1216.08 1048.81 1220.72 1053.45 1220.72 1059.17C1220.72 1064.89 1216.08 1069.53 1210.37 1069.53Z" fill="#A6A8AB"/>
<path d="M1058.18 1166.28H773.16C767.441 1166.28 762.809 1161.65 762.809 1155.93C762.809 1150.21 767.441 1145.57 773.16 1145.57H1058.18C1063.9 1145.57 1068.54 1150.21 1068.54 1155.93C1068.54 1161.65 1063.9 1166.28 1058.18 1166.28Z" fill="#A6A8AB"/>
<path d="M1058.18 1271.11H773.16C767.441 1271.11 762.809 1266.47 762.809 1260.75C762.809 1255.03 767.441 1250.39 773.16 1250.39H1058.18C1063.9 1250.39 1068.54 1255.03 1068.54 1260.75C1068.54 1266.47 1063.9 1271.11 1058.18 1271.11Z" fill="#A6A8AB"/>
<path d="M1367.27 1271.11H1114.45C1108.73 1271.11 1104.09 1266.47 1104.09 1260.75C1104.09 1255.03 1108.73 1250.39 1114.45 1250.39H1367.27C1372.99 1250.39 1377.63 1255.03 1377.63 1260.75C1377.63 1266.47 1372.99 1271.11 1367.27 1271.11Z" fill="#A6A8AB"/>
<path d="M602.73 667.859C602.73 678.828 593.836 687.73 582.859 687.73C571.887 687.73 562.988 678.828 562.988 667.859C562.988 656.879 571.887 647.98 582.859 647.98C593.836 647.98 602.73 656.879 602.73 667.859Z" fill="#EF6858"/>
<path d="M667.777 667.859C667.777 678.828 658.883 687.73 647.906 687.73C636.93 687.73 628.035 678.828 628.035 667.859C628.035 656.879 636.93 647.98 647.906 647.98C658.883 647.98 667.777 656.879 667.777 667.859Z" fill="#86B7A3"/>
<path d="M731.738 667.859C731.738 678.828 722.848 687.73 711.871 687.73C700.895 687.73 692 678.828 692 667.859C692 656.879 700.895 647.98 711.871 647.98C722.848 647.98 731.738 656.879 731.738 667.859Z" fill="#F6B955"/>
<path d="M647.434 1126.09H137.258C128.09 1126.09 120.656 1133.52 120.656 1142.69V1393.12H664.031V1142.69C664.031 1133.52 656.602 1126.09 647.434 1126.09Z" fill="#EEECEA"/>
<path d="M644.688 1392.27H137.422V1163.99H644.688V1392.27Z" fill="white"/>
<path d="M327.914 1370.2H156.051V1198.34H327.914V1370.2Z" fill="#9AB3DD"/>
<path d="M619.684 1243.95H360.93C357.219 1243.95 354.211 1240.95 354.211 1237.23C354.211 1233.52 357.219 1230.52 360.93 1230.52H619.684C623.395 1230.52 626.402 1233.52 626.402 1237.23C626.402 1240.95 623.395 1243.95 619.684 1243.95Z" fill="#A6A8AB"/>
<path d="M619.684 1284.27H360.93C357.219 1284.27 354.211 1281.26 354.211 1277.55C354.211 1273.84 357.219 1270.83 360.93 1270.83H619.684C623.395 1270.83 626.402 1273.84 626.402 1277.55C626.402 1281.26 623.395 1284.27 619.684 1284.27Z" fill="#A6A8AB"/>
<path d="M513.855 1332.65H360.93C357.219 1332.65 354.211 1329.64 354.211 1325.93C354.211 1322.22 357.219 1319.21 360.93 1319.21H513.855C517.566 1319.21 520.574 1322.22 520.574 1325.93C520.574 1329.64 517.566 1332.65 513.855 1332.65Z" fill="#A6A8AB"/>
<path d="M2387.33 1143.84H1441.55C1424.73 1143.84 1411.1 1157.47 1411.1 1174.28V1393.12H2417.78V1174.28C2417.78 1157.47 2404.15 1143.84 2387.33 1143.84Z" fill="#AEC0E8"/>
<path d="M2385.13 1392.94H1440.12V1192.21H2385.13V1392.94Z" fill="white"/>
<path d="M1461.28 1170.54C1461.28 1176.39 1456.54 1181.13 1450.7 1181.13C1444.85 1181.13 1440.12 1176.39 1440.12 1170.54C1440.12 1164.7 1444.85 1159.96 1450.7 1159.96C1456.54 1159.96 1461.28 1164.7 1461.28 1170.54Z" fill="white"/>
<path d="M1503.11 1170.54C1503.11 1176.39 1498.37 1181.13 1492.53 1181.13C1486.68 1181.13 1481.94 1176.39 1481.94 1170.54C1481.94 1164.7 1486.68 1159.96 1492.53 1159.96C1498.37 1159.96 1503.11 1164.7 1503.11 1170.54Z" fill="white"/>
<path d="M1702.17 1233.1C1707.75 1233.1 1713.32 1233.1 1718.9 1233.1C1733.93 1233.1 1748.97 1233.1 1764.01 1233.1C1786.39 1233.1 1808.77 1233.1 1831.15 1233.1C1858.27 1233.1 1885.39 1233.1 1912.51 1233.1C1942.42 1233.1 1972.33 1233.1 2002.23 1233.1C2032.22 1233.1 2062.2 1233.1 2092.18 1233.1C2120.33 1233.1 2148.48 1233.1 2176.63 1233.1C2200.26 1233.1 2223.88 1233.1 2247.51 1233.1C2264.62 1233.1 2281.73 1233.1 2298.83 1233.1C2306.88 1233.1 2314.94 1233.25 2322.99 1233.1C2323.34 1233.09 2323.69 1233.1 2324.04 1233.1C2324.77 1233.1 2324.77 1231.97 2324.04 1231.97C2318.47 1231.97 2312.89 1231.97 2307.32 1231.97C2292.28 1231.97 2277.24 1231.97 2262.21 1231.97C2239.82 1231.97 2217.44 1231.97 2195.06 1231.97C2167.94 1231.97 2140.82 1231.97 2113.7 1231.97C2083.79 1231.97 2053.89 1231.97 2023.98 1231.97C1994 1231.97 1964.01 1231.97 1934.03 1231.97C1905.88 1231.97 1877.73 1231.97 1849.59 1231.97C1825.96 1231.97 1802.33 1231.97 1778.7 1231.97C1761.6 1231.97 1744.49 1231.97 1727.38 1231.97C1719.33 1231.97 1711.27 1231.81 1703.23 1231.97C1702.87 1231.97 1702.52 1231.97 1702.17 1231.97C1701.44 1231.97 1701.44 1233.1 1702.17 1233.1Z" fill="#BBBDBF"/>
<path d="M1702.17 1253.93C1707.75 1253.93 1713.32 1253.93 1718.9 1253.93C1733.93 1253.93 1748.97 1253.93 1764.01 1253.93C1786.39 1253.93 1808.77 1253.93 1831.15 1253.93C1858.27 1253.93 1885.39 1253.93 1912.51 1253.93C1942.42 1253.93 1972.33 1253.93 2002.23 1253.93C2032.22 1253.93 2062.2 1253.93 2092.18 1253.93C2120.33 1253.93 2148.48 1253.93 2176.63 1253.93C2200.26 1253.93 2223.88 1253.93 2247.51 1253.93C2264.62 1253.93 2281.73 1253.93 2298.83 1253.93C2306.88 1253.93 2314.94 1254.08 2322.99 1253.93C2323.34 1253.92 2323.69 1253.93 2324.04 1253.93C2324.77 1253.93 2324.77 1252.8 2324.04 1252.8C2318.47 1252.8 2312.89 1252.8 2307.32 1252.8C2292.28 1252.8 2277.24 1252.8 2262.21 1252.8C2239.82 1252.8 2217.44 1252.8 2195.06 1252.8C2167.94 1252.8 2140.82 1252.8 2113.7 1252.8C2083.79 1252.8 2053.89 1252.8 2023.98 1252.8C1994 1252.8 1964.01 1252.8 1934.03 1252.8C1905.88 1252.8 1877.73 1252.8 1849.59 1252.8C1825.96 1252.8 1802.33 1252.8 1778.7 1252.8C1761.6 1252.8 1744.49 1252.8 1727.38 1252.8C1719.33 1252.8 1711.27 1252.64 1703.23 1252.8C1702.87 1252.8 1702.52 1252.8 1702.17 1252.8C1701.44 1252.8 1701.44 1253.93 1702.17 1253.93Z" fill="#BBBDBF"/>
<path d="M1702.17 1281.48C1707.75 1281.48 1713.32 1281.48 1718.9 1281.48C1733.93 1281.48 1748.97 1281.48 1764.01 1281.48C1786.39 1281.48 1808.77 1281.48 1831.15 1281.48C1858.27 1281.48 1885.39 1281.48 1912.51 1281.48C1942.42 1281.48 1972.33 1281.48 2002.23 1281.48C2032.22 1281.48 2062.2 1281.48 2092.18 1281.48C2120.33 1281.48 2148.48 1281.48 2176.63 1281.48C2200.26 1281.48 2223.88 1281.48 2247.51 1281.48C2264.62 1281.48 2281.73 1281.48 2298.83 1281.48C2306.88 1281.48 2314.94 1281.63 2322.99 1281.48C2323.34 1281.47 2323.69 1281.48 2324.04 1281.48C2324.77 1281.48 2324.77 1280.35 2324.04 1280.35C2318.47 1280.35 2312.89 1280.35 2307.32 1280.35C2292.28 1280.35 2277.24 1280.35 2262.21 1280.35C2239.82 1280.35 2217.44 1280.35 2195.06 1280.35C2167.94 1280.35 2140.82 1280.35 2113.7 1280.35C2083.79 1280.35 2053.89 1280.35 2023.98 1280.35C1994 1280.35 1964.01 1280.35 1934.03 1280.35C1905.88 1280.35 1877.73 1280.35 1849.59 1280.35C1825.96 1280.35 1802.33 1280.35 1778.7 1280.35C1761.6 1280.35 1744.49 1280.35 1727.38 1280.35C1719.33 1280.35 1711.27 1280.19 1703.23 1280.35C1702.87 1280.35 1702.52 1280.35 1702.17 1280.35C1701.44 1280.35 1701.44 1281.48 1702.17 1281.48Z" fill="#BBBDBF"/>
<path d="M1702.17 1302.31C1707.75 1302.31 1713.32 1302.31 1718.9 1302.31C1733.93 1302.31 1748.97 1302.31 1764.01 1302.31C1786.39 1302.31 1808.77 1302.31 1831.15 1302.31C1858.27 1302.31 1885.39 1302.31 1912.51 1302.31C1942.42 1302.31 1972.33 1302.31 2002.23 1302.31C2032.22 1302.31 2062.2 1302.31 2092.18 1302.31C2120.33 1302.31 2148.48 1302.31 2176.63 1302.31C2200.26 1302.31 2223.88 1302.31 2247.51 1302.31C2264.62 1302.31 2281.73 1302.31 2298.83 1302.31C2306.88 1302.31 2314.94 1302.46 2322.99 1302.31C2323.34 1302.3 2323.69 1302.31 2324.04 1302.31C2324.77 1302.31 2324.77 1301.18 2324.04 1301.18C2318.47 1301.18 2312.89 1301.18 2307.32 1301.18C2292.28 1301.18 2277.24 1301.18 2262.21 1301.18C2239.82 1301.18 2217.44 1301.18 2195.06 1301.18C2167.94 1301.18 2140.82 1301.18 2113.7 1301.18C2083.79 1301.18 2053.89 1301.18 2023.98 1301.18C1994 1301.18 1964.01 1301.18 1934.03 1301.18C1905.88 1301.18 1877.73 1301.18 1849.59 1301.18C1825.96 1301.18 1802.33 1301.18 1778.7 1301.18C1761.6 1301.18 1744.49 1301.18 1727.38 1301.18C1719.33 1301.18 1711.27 1301.02 1703.23 1301.18C1702.87 1301.18 1702.52 1301.18 1702.17 1301.18C1701.44 1301.18 1701.44 1302.31 1702.17 1302.31Z" fill="#BBBDBF"/>
<path d="M1702.17 1329.85C1707.75 1329.85 1713.32 1329.85 1718.9 1329.85C1733.93 1329.85 1748.97 1329.85 1764.01 1329.85C1786.39 1329.85 1808.77 1329.85 1831.15 1329.85C1858.27 1329.85 1885.39 1329.85 1912.51 1329.85C1942.42 1329.85 1972.33 1329.85 2002.23 1329.85C2032.22 1329.85 2062.2 1329.85 2092.18 1329.85C2120.33 1329.85 2148.48 1329.85 2176.63 1329.85C2200.26 1329.85 2223.88 1329.85 2247.51 1329.85C2264.62 1329.85 2281.73 1329.85 2298.83 1329.85C2306.88 1329.85 2314.94 1330.01 2322.99 1329.85C2323.34 1329.85 2323.69 1329.85 2324.04 1329.85C2324.77 1329.85 2324.77 1328.72 2324.04 1328.72C2318.47 1328.72 2312.89 1328.72 2307.32 1328.72C2292.28 1328.72 2277.24 1328.72 2262.21 1328.72C2239.82 1328.72 2217.44 1328.72 2195.06 1328.72C2167.94 1328.72 2140.82 1328.72 2113.7 1328.72C2083.79 1328.72 2053.89 1328.72 2023.98 1328.72C1994 1328.72 1964.01 1328.72 1934.03 1328.72C1905.88 1328.72 1877.73 1328.72 1849.59 1328.72C1825.96 1328.72 1802.33 1328.72 1778.7 1328.72C1761.6 1328.72 1744.49 1328.72 1727.38 1328.72C1719.33 1328.72 1711.27 1328.57 1703.23 1328.72C1702.87 1328.73 1702.52 1328.72 1702.17 1328.72C1701.44 1328.72 1701.44 1329.85 1702.17 1329.85Z" fill="#BBBDBF"/>
<path d="M1702.17 1350.68C1707.75 1350.68 1713.32 1350.68 1718.9 1350.68C1733.93 1350.68 1748.97 1350.68 1764.01 1350.68C1786.39 1350.68 1808.77 1350.68 1831.15 1350.68C1858.27 1350.68 1885.39 1350.68 1912.51 1350.68C1942.42 1350.68 1972.33 1350.68 2002.23 1350.68C2032.22 1350.68 2062.2 1350.68 2092.18 1350.68C2120.33 1350.68 2148.48 1350.68 2176.63 1350.68C2200.26 1350.68 2223.88 1350.68 2247.51 1350.68C2264.62 1350.68 2281.73 1350.68 2298.83 1350.68C2306.88 1350.68 2314.94 1350.84 2322.99 1350.68C2323.34 1350.68 2323.69 1350.68 2324.04 1350.68C2324.77 1350.68 2324.77 1349.55 2324.04 1349.55C2318.47 1349.55 2312.89 1349.55 2307.32 1349.55C2292.28 1349.55 2277.24 1349.55 2262.21 1349.55C2239.82 1349.55 2217.44 1349.55 2195.06 1349.55C2167.94 1349.55 2140.82 1349.55 2113.7 1349.55C2083.79 1349.55 2053.89 1349.55 2023.98 1349.55C1994 1349.55 1964.01 1349.55 1934.03 1349.55C1905.88 1349.55 1877.73 1349.55 1849.59 1349.55C1825.96 1349.55 1802.33 1349.55 1778.7 1349.55C1761.6 1349.55 1744.49 1349.55 1727.38 1349.55C1719.33 1349.55 1711.27 1349.4 1703.23 1349.55C1702.87 1349.56 1702.52 1349.55 1702.17 1349.55C1701.44 1349.55 1701.44 1350.68 1702.17 1350.68Z" fill="#BBBDBF"/>
<path d="M1702.17 1277.89C1713.01 1275.38 1730.57 1272.94 1749.54 1278.89C1787.13 1290.69 1788.55 1322.39 1816.06 1330.3C1853.01 1340.92 1869.21 1289.16 1933.99 1278.89C1982.2 1271.26 1996.06 1296.3 2033.77 1280.91C2073.24 1264.8 2075.49 1230.24 2100.29 1230.52C2134.32 1230.9 2138.58 1296.03 2182.94 1304.09C2209.52 1308.92 2220.56 1287.82 2274.66 1281.92C2295.21 1279.68 2312.44 1280.67 2324.04 1281.92" stroke="#4D57A5" stroke-miterlimit="10"/>
<path d="M1711.62 1277.55C1711.62 1281.38 1708.52 1284.48 1704.69 1284.48C1700.86 1284.48 1697.76 1281.38 1697.76 1277.55C1697.76 1273.72 1700.86 1270.62 1704.69 1270.62C1708.52 1270.62 1711.62 1273.72 1711.62 1277.55Z" fill="#4D57A5"/>
<path d="M1831.22 1331.73C1831.22 1335.55 1828.12 1338.66 1824.29 1338.66C1820.47 1338.66 1817.37 1335.55 1817.37 1331.73C1817.37 1327.9 1820.47 1324.8 1824.29 1324.8C1828.12 1324.8 1831.22 1327.9 1831.22 1331.73Z" fill="#4D57A5"/>
<path d="M1981.06 1280.91C1981.06 1284.74 1977.96 1287.84 1974.14 1287.84C1970.31 1287.84 1967.21 1284.74 1967.21 1280.91C1967.21 1277.08 1970.31 1273.98 1974.14 1273.98C1977.96 1273.98 1981.06 1277.08 1981.06 1280.91Z" fill="#4D57A5"/>
<path d="M2077.32 1253.36C2077.32 1257.19 2074.22 1260.29 2070.39 1260.29C2066.56 1260.29 2063.46 1257.19 2063.46 1253.36C2063.46 1249.53 2066.56 1246.43 2070.39 1246.43C2074.22 1246.43 2077.32 1249.53 2077.32 1253.36Z" fill="#4D57A5"/>
<path d="M2107.3 1230.51C2107.3 1234.34 2104.2 1237.44 2100.37 1237.44C2096.55 1237.44 2093.45 1234.34 2093.45 1230.51C2093.45 1226.69 2096.55 1223.58 2100.37 1223.58C2104.2 1223.58 2107.3 1226.69 2107.3 1230.51Z" fill="#4D57A5"/>
<path d="M2196.92 1305.1C2196.92 1308.93 2193.82 1312.03 2189.99 1312.03C2186.17 1312.03 2183.06 1308.93 2183.06 1305.1C2183.06 1301.27 2186.17 1298.17 2189.99 1298.17C2193.82 1298.17 2196.92 1301.27 2196.92 1305.1Z" fill="#4D57A5"/>
<path d="M2330.97 1280.91C2330.97 1284.74 2327.87 1287.84 2324.04 1287.84C2320.22 1287.84 2317.11 1284.74 2317.11 1280.91C2317.11 1277.08 2320.22 1273.98 2324.04 1273.98C2327.87 1273.98 2330.97 1277.08 2330.97 1280.91Z" fill="#4D57A5"/>
<path d="M46.8359 1392.89C60.0742 1392.89 73.3086 1392.89 86.5469 1392.89C122.242 1392.89 157.941 1392.89 193.641 1392.89C246.566 1392.89 299.492 1392.89 352.418 1392.89C416.988 1392.89 481.559 1392.89 546.133 1392.89C616.609 1392.89 687.086 1392.89 757.559 1392.89C829.191 1392.89 900.809 1392.89 972.441 1392.89C1038.76 1392.89 1105.09 1392.89 1171.42 1392.89C1227.67 1392.89 1283.92 1392.89 1340.18 1392.89C1380.62 1392.89 1421.06 1392.89 1461.5 1392.89C1480.58 1392.89 1499.78 1393.5 1518.85 1392.89C1519.69 1392.87 1520.52 1392.89 1521.36 1392.89C1522.16 1392.89 1522.17 1391.64 1521.36 1391.64C1508.12 1391.64 1494.89 1391.64 1481.65 1391.64C1445.95 1391.64 1410.25 1391.64 1374.56 1391.64C1321.63 1391.64 1268.71 1391.64 1215.78 1391.64C1151.21 1391.64 1086.64 1391.64 1022.07 1391.64C951.59 1391.64 881.109 1391.64 810.629 1391.64C739.012 1391.64 667.387 1391.64 595.762 1391.64C529.434 1391.64 463.105 1391.64 396.777 1391.64C340.523 1391.64 284.273 1391.64 228.02 1391.64C187.578 1391.64 147.137 1391.64 106.691 1391.64C87.6133 1391.64 68.418 1391.04 49.3438 1391.64C48.5117 1391.67 47.6719 1391.64 46.8359 1391.64C46.0312 1391.64 46.0312 1392.89 46.8359 1392.89Z" fill="#231F20"/>
<path d="M1646.22 1393.75C1653.4 1393.75 1660.58 1393.75 1667.75 1393.75C1687.11 1393.75 1706.47 1393.75 1725.83 1393.75C1754.54 1393.75 1783.24 1393.75 1811.95 1393.75C1846.96 1393.75 1881.98 1393.75 1917 1393.75C1955.23 1393.75 1993.45 1393.75 2031.67 1393.75C2070.52 1393.75 2109.36 1393.75 2148.21 1393.75C2184.18 1393.75 2220.15 1393.75 2256.12 1393.75C2286.63 1393.75 2317.14 1393.75 2347.65 1393.75C2369.58 1393.75 2391.51 1393.75 2413.45 1393.75C2423.81 1393.75 2434.19 1393.93 2444.55 1393.75C2445 1393.74 2445.45 1393.75 2445.91 1393.75C2446.71 1393.75 2446.71 1392.5 2445.91 1392.5C2438.73 1392.5 2431.55 1392.5 2424.37 1392.5C2405.01 1392.5 2385.65 1392.5 2366.29 1392.5C2337.59 1392.5 2308.88 1392.5 2280.18 1392.5C2245.16 1392.5 2210.14 1392.5 2175.12 1392.5C2136.9 1392.5 2098.68 1392.5 2060.46 1392.5C2021.61 1392.5 1982.77 1392.5 1943.92 1392.5C1907.95 1392.5 1871.98 1392.5 1836 1392.5C1805.5 1392.5 1774.99 1392.5 1744.48 1392.5C1722.55 1392.5 1700.61 1392.5 1678.68 1392.5C1668.32 1392.5 1657.94 1392.32 1647.58 1392.5C1647.13 1392.51 1646.67 1392.5 1646.22 1392.5C1645.41 1392.5 1645.41 1393.75 1646.22 1393.75Z" fill="#231F20"/>
<path d="M2468.2 1392.89C2473.41 1392.89 2478.62 1392.89 2483.83 1392.89C2484.57 1392.89 2485.3 1392.89 2486.04 1392.89C2486.85 1392.89 2486.85 1391.64 2486.04 1391.64C2480.83 1391.64 2475.62 1391.64 2470.41 1391.64C2469.68 1391.64 2468.94 1391.64 2468.2 1391.64C2467.4 1391.64 2467.4 1392.89 2468.2 1392.89Z" fill="#231F20"/>
<path d="M786.359 1388.2H718.973C699.527 1388.2 683.766 1372.43 683.766 1352.99V1285.6C683.766 1266.16 699.527 1250.39 718.973 1250.39H786.359C805.809 1250.39 821.57 1266.16 821.57 1285.6V1352.99C821.57 1372.43 805.809 1388.2 786.359 1388.2Z" fill="#CD8F67"/>
<path d="M781.031 1321.48C781.031 1337.94 767.68 1351.29 751.211 1351.29C734.738 1351.29 721.395 1337.94 721.395 1321.48C721.395 1305.01 734.738 1291.66 751.211 1291.66C767.68 1291.66 781.031 1305.01 781.031 1321.48Z" fill="#CD8F67"/>
<path d="M781.031 1321.48C781.031 1337.94 767.68 1351.29 751.211 1351.29C734.738 1351.29 721.395 1337.94 721.395 1321.48C721.395 1305.01 734.738 1291.66 751.211 1291.66C767.68 1291.66 781.031 1305.01 781.031 1321.48Z" stroke="white" stroke-width="2" stroke-miterlimit="10"/>
<path d="M760.078 1292.95H745.262V1278.13H760.078V1292.95Z" fill="white"/>
<path d="M760.078 1366.12H745.262V1351.29H760.078V1366.12Z" fill="white"/>
<path d="M721.395 1330.34H706.57V1315.52H721.395V1330.34Z" fill="white"/>
<path d="M795.852 1330.34H781.031V1315.52H795.852V1330.34Z" fill="white"/>
<path d="M724.078 1306.44L714.441 1295.18L725.707 1285.54L735.34 1296.81L724.078 1306.44Z" fill="white"/>
<path d="M769.43 1298.96L779.91 1288.48L790.398 1298.96L779.91 1309.44L769.43 1298.96Z" fill="white"/>
<path d="M726.992 1359.32L717.355 1348.05L728.621 1338.42L738.262 1349.68L726.992 1359.32Z" fill="white"/>
<path d="M766.711 1347.52L777.191 1337.04L787.672 1347.52L777.191 1358L766.711 1347.52Z" fill="white"/>
<path d="M689.684 1388.2H642.523C623.078 1388.2 607.316 1372.43 607.316 1352.99V1305.83C607.316 1286.38 623.078 1270.62 642.523 1270.62H689.684C709.129 1270.62 724.895 1286.38 724.895 1305.83V1352.99C724.895 1372.43 709.129 1388.2 689.684 1388.2Z" fill="#D9727A"/>
<path d="M699.148 1318.64C699.148 1331.15 689.012 1341.29 676.504 1341.29C663.992 1341.29 653.855 1331.15 653.855 1318.64C653.855 1306.13 663.992 1295.99 676.504 1295.99C689.012 1295.99 699.148 1306.13 699.148 1318.64Z" stroke="white" stroke-width="2" stroke-miterlimit="10"/>
<path d="M636.301 1375.68L627 1367.38L649.898 1341.73L659.199 1350.03L636.301 1375.68Z" fill="white"/>
<path d="M2410.95 1388.2H2363.79C2344.35 1388.2 2328.58 1372.43 2328.58 1352.99V1305.83C2328.58 1286.38 2344.35 1270.62 2363.79 1270.62H2410.95C2430.4 1270.62 2446.16 1286.38 2446.16 1305.83V1352.99C2446.16 1372.43 2430.4 1388.2 2410.95 1388.2Z" fill="#7A7E80"/>
<path d="M2413.95 1301.74L2366.38 1331.73L2413.95 1361.69" stroke="white" stroke-miterlimit="10"/>
<path d="M2423.98 1302.61C2423.98 1308.15 2419.49 1312.64 2413.95 1312.64C2408.41 1312.64 2403.92 1308.15 2403.92 1302.61C2403.92 1297.07 2408.41 1292.58 2413.95 1292.58C2419.49 1292.58 2423.98 1297.07 2423.98 1302.61Z" fill="white"/>
<path d="M2375.12 1331.73C2375.12 1337.27 2370.63 1341.76 2365.09 1341.76C2359.55 1341.76 2355.05 1337.27 2355.05 1331.73C2355.05 1326.19 2359.55 1321.69 2365.09 1321.69C2370.63 1321.69 2375.12 1326.19 2375.12 1331.73Z" fill="white"/>
<path d="M2421.2 1360.15C2421.2 1365.69 2416.71 1370.19 2411.17 1370.19C2405.62 1370.19 2401.13 1365.69 2401.13 1360.15C2401.13 1354.61 2405.62 1350.12 2411.17 1350.12C2416.71 1350.12 2421.2 1354.61 2421.2 1360.15Z" fill="white"/>
<path d="M1342.69 1352.07L1387.63 1340.8L1373.03 1282.62L1328.1 1293.89L1342.69 1352.07Z" fill="#F8BC8B"/>
<path d="M1395.04 1335.49L1341.14 1349.01C1325.26 1361.59 1307.5 1371.84 1287.3 1379.08C1287.3 1379.08 1275.74 1389.35 1290.7 1392.65C1305.67 1395.95 1401.13 1370.16 1401.13 1370.16C1405.15 1359.87 1403.08 1348.3 1395.04 1335.49Z" fill="#172F33"/>
<path d="M1259.54 1361.87L1305.87 1361.59L1305.5 1301.61L1259.18 1301.89L1259.54 1361.87Z" fill="#F8BC8B"/>
<path d="M1310.3 1356.73L1254.73 1357.07C1236.31 1365.52 1216.62 1371.26 1195.28 1373.49C1195.28 1373.49 1181.61 1380.72 1195.37 1387.48C1209.12 1394.24 1307.98 1391.86 1307.98 1391.86C1314.33 1382.81 1315.06 1371.08 1310.3 1356.73Z" fill="#172F33"/>
<path d="M1357.47 1039.09C1353.2 1036.95 1356.4 970.679 1356.4 970.679C1356.4 970.679 1385.26 796.629 1375.64 791.199C1366.02 785.769 1235.63 806.078 1235.63 806.078C1235.63 814.629 1240.97 1112.84 1240.97 1112.84C1240.97 1112.84 1244.18 1162.01 1249.52 1185.52C1254.86 1209.04 1249.52 1313.78 1249.52 1313.78C1251.47 1319.59 1255.17 1327.13 1262.35 1333.02C1277.07 1345.11 1300.5 1345.4 1321.63 1333.9L1321.64 1333.87C1326.55 1337.3 1333.52 1341.06 1342.51 1342.64C1369.78 1347.45 1390.33 1327.91 1392.75 1325.54C1392.75 1325.54 1361.75 1041.23 1357.47 1039.09Z" fill="#3E5757"/>
<path d="M1253.4 907.391C1255.14 916.23 1256.77 925.078 1258.38 933.941L1263.09 960.539L1267.57 987.18L1269.73 1000.52L1271.79 1013.87L1269.25 1000.6L1266.81 987.309L1262.1 960.711L1257.62 934.07C1256.17 925.191 1254.73 916.301 1253.4 907.391Z" fill="#2F4141"/>
<path d="M1284.47 1052.8L1289.36 1087.91L1294.09 1123.03L1303.55 1193.29L1312.67 1263.58L1317.23 1298.73L1321.63 1333.9L1316.75 1298.79L1312.01 1263.67L1302.56 1193.42L1293.44 1123.12L1288.88 1087.97L1284.47 1052.8Z" fill="#2F4141"/>
<path d="M1187.23 491.891L1158.07 452.211L1114.04 337.641C1109.5 320.609 1091.21 284.609 1082.75 265.77C1076.99 252.93 1071.94 248.602 1068.43 247.379C1065.95 246.531 1063.58 249.078 1064.18 251.84C1065.99 260.23 1070.15 279.5 1072.36 289.328C1074.42 298.469 1076.84 312.441 1078.07 318.531C1076.05 313.762 1070.57 305.691 1068.7 305.609C1066.38 305.5 1064.74 331 1067.27 335.91C1069.22 339.699 1073.54 345.27 1078.02 349.641L1077.8 349.84L1127.61 486.699L1169.69 541.23L1192.17 497.922L1187.23 491.891Z" fill="#EC9A71"/>
<path d="M1383 782.762C1377.85 751.461 1375.28 735.808 1374.94 734.699C1371.42 723.261 1369.91 703.828 1366.88 664.988C1365 640.929 1363.94 627.179 1364.1 610.859C1365.16 610.781 1365.83 610.719 1365.83 610.719C1365.83 610.719 1370.59 590.699 1366.06 576.519C1369.6 542.058 1375.69 525.199 1365.53 517.429C1356.9 510.828 1338.23 512.07 1327.67 516.211C1325.68 516.98 1319.07 519.789 1309.63 522.039C1303.49 523.5 1300.43 524.23 1298 523.859C1287.49 522.261 1284.37 510.672 1278.1 510.269L1278.14 510.179C1278.1 510.211 1278.05 510.23 1278.01 510.25C1277.78 510.238 1277.58 510.129 1277.34 510.16C1275.56 510.308 1274.2 511.371 1272.89 512.941C1262.41 517.769 1253.91 517.461 1250.29 517.09C1234.97 515.539 1223.49 505.211 1220.06 501.859C1211.64 493.64 1210.37 487.078 1203.6 485.961C1200.69 485.48 1196.18 485.898 1187.47 493.058C1184.22 495.73 1153.59 520.929 1161.26 542.808C1163.23 548.41 1168.17 552.41 1178.06 560.41C1190.18 570.211 1197.04 572.199 1206.95 579.019C1214.2 584.011 1223.96 592.179 1233.5 605.761C1234.21 606.011 1234.85 606.109 1235.44 606.101C1234.24 609.269 1232.99 612.961 1231.82 618.281C1228.97 631.23 1228.21 640.078 1225.77 679.199C1222.63 729.351 1223.09 727.261 1222.41 731.32C1220.2 744.488 1217.2 755.82 1218.38 773.281C1219.29 786.75 1222 793.672 1225.77 799C1227.51 801.461 1232.81 808.308 1244.58 813.219C1275.73 826.199 1293.8 801.269 1333.95 807.129C1333.99 807.129 1347.85 809.148 1364.86 805.769C1372.9 804.172 1378.02 802.09 1380.99 797.648C1384.5 792.39 1383.54 786.019 1383 782.762Z" fill="#FDD192"/>
<path d="M1320.16 614.352L1324.71 699.961C1324.76 700.891 1324.7 701.828 1324.51 702.75L1297.9 835.422C1297.24 838.711 1298.09 842.121 1300.22 844.711L1308.62 854.922C1310.06 856.66 1311.98 857.93 1314.15 858.551C1320.04 860.25 1326.2 856.879 1327.95 851.012L1369.22 712.121C1369.36 711.648 1369.47 711.191 1369.55 710.699C1369.95 707.969 1371.13 697.609 1369.42 677.18C1367.98 659.859 1366.54 628.59 1365.83 612.219C1365.58 606.25 1360.66 601.59 1354.68 601.59L1319.49 611.102C1319.88 612.141 1320.1 613.238 1320.16 614.352Z" fill="#EC9A71"/>
<path d="M1155.33 452.371C1154.65 452.379 1151.33 452.48 1148.64 455.16C1146.2 457.59 1145.91 460.539 1145.85 461.289" fill="#D99873"/>
<path d="M1327.01 699.301C1328.25 698.328 1330.71 696.672 1334.26 695.961C1337.11 695.391 1339.5 695.672 1340.95 695.961" fill="#D99873"/>
<path d="M1265.14 525.949C1262.46 531.609 1259.91 537.328 1257.59 543.129C1255.27 548.941 1253.11 554.809 1251.28 560.781C1249.37 566.73 1247.77 572.781 1246.37 578.871C1244.94 584.961 1243.86 591.121 1242.84 597.301L1243.36 592.629C1243.52 591.07 1243.74 589.52 1243.97 587.969C1244.19 586.41 1244.46 584.871 1244.74 583.328C1245 581.781 1245.31 580.238 1245.62 578.699C1246.87 572.559 1248.49 566.48 1250.33 560.48C1252.24 554.512 1254.4 548.609 1256.88 542.84C1259.35 537.078 1262.09 531.43 1265.14 525.949Z" fill="#7F6949"/>
<path d="M1315.31 536.539C1314.19 538.891 1313.16 541.27 1312.3 543.719C1311.41 546.148 1310.66 548.629 1310.07 551.148C1308.92 556.18 1308.22 561.32 1308.21 566.488C1308.09 571.648 1308.71 576.801 1309.71 581.871C1310.73 586.941 1312.27 591.91 1314.19 596.738C1313.03 594.41 1312.05 592 1311.15 589.551C1310.28 587.09 1309.57 584.578 1308.96 582.039C1307.79 576.949 1307.17 571.711 1307.21 566.48C1307.3 561.238 1308 556.02 1309.33 550.961C1310.69 545.91 1312.7 541.039 1315.31 536.539Z" fill="#7F6949"/>
<path d="M1282.05 529.301C1284.69 532.371 1288.12 534.621 1291.95 535.52C1293.85 535.988 1295.83 536.121 1297.8 535.941C1299.76 535.738 1301.72 535.27 1303.6 534.5C1301.9 535.621 1299.94 536.371 1297.9 536.711C1296.88 536.891 1295.84 536.941 1294.8 536.922C1293.76 536.879 1292.73 536.719 1291.71 536.5C1289.69 536 1287.76 535.109 1286.11 533.859C1284.45 532.629 1283.04 531.07 1282.05 529.301Z" fill="#7F6949"/>
<path d="M1281.77 472.84C1281.77 472.84 1288.79 510.109 1281.77 513.941C1274.76 517.762 1295.78 525.879 1295.78 525.879C1295.78 525.879 1328.76 523.969 1332.1 513.461C1335.45 502.949 1332.1 460.422 1332.1 460.422H1280.34L1281.77 472.84Z" fill="#EC9A71"/>
<path d="M1233.04 407.551C1233.38 407.301 1233.75 406.961 1234.11 406.672L1246.31 358.93C1252.02 336.601 1276.82 323.488 1301.43 329.781L1302.52 330.058C1327.12 336.351 1342.59 359.762 1336.88 382.078L1330.41 407.398C1332.2 407.43 1334.05 407.762 1335.73 408.75C1341.16 411.949 1340.96 419.371 1340.82 424.82C1340.73 428.25 1340.55 434.969 1335.33 440.762C1333.52 442.769 1328.62 448.199 1321.57 447.512C1321.09 447.469 1320.67 447.34 1320.22 447.238C1314.48 469.519 1289.71 482.601 1265.13 476.32L1264.04 476.039C1239.43 469.75 1223.97 446.34 1229.67 424.019L1231.35 417.461C1231.2 417.39 1231.06 417.359 1230.91 417.269C1230.63 417.109 1227.43 415.219 1227.44 412.859C1227.44 410.59 1230.37 409.449 1233.04 407.551Z" fill="#EC9A71"/>
<path d="M1321.78 410.199C1322.86 410.672 1326.41 412.41 1328.55 416.559C1330.93 421.18 1329.91 425.539 1329.63 426.578" fill="#D99873"/>
<path d="M1282.59 477.629C1282.59 477.629 1287.99 476.898 1290.59 474.301C1293.19 471.699 1294.5 470.398 1294.5 470.398L1283.33 482.609L1282.59 477.629Z" fill="#D99873"/>
<path d="M1243.06 355.601C1247.82 357.308 1251.89 356.64 1257.71 355.601C1268.8 353.629 1270.16 350.5 1276.83 349.871C1284.78 349.121 1293.19 352.578 1298.49 357.519C1304.02 362.66 1301.96 365.48 1311.87 388.738C1311.87 388.738 1319.42 406.449 1326.23 406.328C1326.46 406.32 1327.53 406.269 1328.86 406.629C1328.86 406.629 1331.33 407.308 1333.44 409.5C1337.14 413.371 1337.21 422.57 1335.42 429.551C1334.14 434.551 1332.13 437.512 1331.32 438.621C1329.14 441.621 1326.9 443.23 1326.16 443.738C1324.92 444.59 1323.45 445.578 1321.23 446.09C1318.7 446.68 1317.32 446.09 1316.04 446.18C1311.25 446.512 1306.13 456.43 1306.3 465.199C1306.48 474.64 1313.79 481.41 1318.24 485.738C1325.22 492.539 1328.26 491.609 1330.67 496.262C1334.67 503.98 1328.75 511.262 1326.84 522.058C1323.28 542.32 1336.47 560.238 1338.31 562.68C1351.59 580.199 1380.02 592.93 1397.09 581.789C1409.22 573.879 1410.68 557.14 1410.95 554.078C1412.34 538.18 1404.05 525.39 1396.61 513.941C1389.25 502.59 1386.93 503.48 1380.84 493.871C1370.03 476.789 1368.23 459.578 1367.46 451.34C1365.47 429.988 1371.24 423.351 1374.15 394.949C1376.5 372.09 1377.44 360.64 1374.63 350.512C1367.63 325.23 1345.31 305.289 1321.11 297.461C1313.7 295.07 1292.02 288.41 1269.02 298.422C1252.41 305.648 1243.82 317.769 1238.92 324.699C1229.62 337.84 1231.28 343.808 1231.75 345.25C1234.05 352.25 1242.09 355.262 1243.06 355.601Z" fill="#383128"/>
<path d="M507.074 869.84L549.156 955.941C549.156 955.941 560.02 972.172 542.371 982.539C524.723 992.898 442.82 1043.93 442.82 1043.93L424.816 1006.26C424.816 1006.26 481.605 973.309 486.004 965.301C490.402 957.289 452.371 897.781 452.371 897.781L507.074 869.84Z" fill="#F8BC8B"/>
<path d="M175.535 887.828L144.629 978.539C144.629 978.539 135.894 996.012 154.707 1004.07C173.519 1012.14 261.195 1052.45 261.195 1052.45L274.312 1012.81C274.312 1012.81 213.832 987.281 208.457 979.879C203.086 972.488 233.324 908.66 233.324 908.66L175.535 887.828Z" fill="#F8BC8B"/>
<path d="M269.664 758L206.445 791.629C206.445 791.629 193.68 797.789 188.305 814.59C182.93 831.391 164.113 882.449 164.113 882.449C164.113 882.449 200.398 928.82 239.371 922.102C239.371 922.102 246.43 956.371 247.605 973.172C248.777 989.961 449.688 987.281 449.688 987.281L453.719 907.32C453.719 907.32 483.953 900.602 510.16 869.012L483.281 798.461C483.281 798.461 474.547 785.699 455.734 780.32C436.918 774.941 408.027 769.629 391.227 757.512C374.43 745.379 269.664 758 269.664 758Z" fill="#CF5C2A"/>
<path d="M242.301 909.82C243.742 904.191 245.293 898.578 246.855 892.988C248.418 887.391 250.066 881.82 251.668 876.23C253.348 870.672 254.984 865.09 256.703 859.539L259.301 851.219C260.199 848.461 261.066 845.68 261.996 842.93C261.285 845.75 260.512 848.551 259.77 851.359L257.441 859.762C255.875 865.359 254.23 870.93 252.629 876.512C250.945 882.078 249.312 887.648 247.594 893.199C245.875 898.762 244.141 904.301 242.301 909.82Z" fill="#682E15"/>
<path d="M452.371 897.781C450.652 893.961 449.035 890.109 447.434 886.25C445.828 882.391 444.309 878.5 442.742 874.621C441.254 870.719 439.723 866.828 438.27 862.91L436.109 857.031C435.426 855.051 434.707 853.09 434.047 851.102C434.918 853.012 435.727 854.93 436.566 856.852L438.984 862.629C440.586 866.488 442.109 870.379 443.676 874.262C445.16 878.16 446.695 882.051 448.145 885.969C449.598 889.891 451.035 893.809 452.371 897.781Z" fill="#682E15"/>
<path d="M311.418 806.512C316.336 808.23 321.336 809.68 326.418 810.73C331.508 811.699 336.637 812.73 341.781 813.148C346.922 813.629 352.137 813.359 357.113 812.012C362.09 810.648 366.77 808.23 370.875 805.031C368.957 806.789 366.816 808.32 364.551 809.641C362.27 810.922 359.844 811.98 357.328 812.75C352.277 814.289 346.918 814.559 341.699 814.141C339.082 813.91 336.492 813.512 333.926 813.039C331.359 812.559 328.793 812.109 326.25 811.48C321.164 810.262 316.187 808.621 311.418 806.512Z" fill="#682E15"/>
<path d="M204.398 977.449C202.844 977.488 199.785 977.801 196.594 979.68C194.426 980.961 192.988 982.5 192.133 983.578" fill="#D99873"/>
<path d="M490.348 962.961C491.418 962.101 494.352 959.98 498.707 959.609C502.77 959.269 505.836 960.648 507.066 961.289" fill="#D99873"/>
<path d="M492.785 1361.2L446.461 1360.92L446.82 1300.94L493.145 1301.21L492.785 1361.2Z" fill="#F8BC8B"/>
<path d="M441.227 1356.73L496.797 1357.07C515.211 1365.52 534.898 1371.26 556.242 1373.49C556.242 1373.49 569.91 1380.72 556.156 1387.48C542.402 1394.24 443.543 1391.86 443.543 1391.86C437.191 1382.81 436.465 1371.08 441.227 1356.73Z" fill="#39332E"/>
<path d="M217.371 1361.2L263.695 1360.92L263.336 1300.94L217.008 1301.21L217.371 1361.2Z" fill="#F8BC8B"/>
<path d="M268.93 1356.73L213.359 1357.07C194.945 1365.52 175.254 1371.26 153.914 1373.49C153.914 1373.49 140.246 1380.72 154 1387.48C167.754 1394.24 266.613 1391.86 266.613 1391.86C272.961 1382.81 273.691 1371.08 268.93 1356.73Z" fill="#39332E"/>
<path d="M247.606 1036.57C213.848 1030.45 185.691 1036.57 185.691 1036.57C185.641 1036.57 185.641 1036.56 185.594 1036.58C184.5 1037.12 141.438 1058.79 154.707 1121.5C168 1184.34 207.594 1331 208.445 1334.16C208.465 1334.24 208.438 1334.19 208.496 1334.24C209.555 1335.13 233.039 1354.35 269.231 1334.31C269.34 1334.25 269.418 1334.19 269.426 1334.06C269.856 1328.39 281.918 1166.37 265.223 1138.26C265.074 1138.02 265.238 1137.75 265.504 1137.75H442.918C443.184 1137.75 443.348 1138.02 443.199 1138.26C426.504 1166.37 438.566 1328.39 438.996 1334.06C439.004 1334.19 439.082 1334.25 439.191 1334.31C475.383 1354.35 498.867 1335.13 499.926 1334.24C499.984 1334.19 499.957 1334.24 499.977 1334.16C500.828 1331 540.422 1184.34 553.715 1121.5C566.984 1058.79 523.922 1037.12 522.828 1036.58C522.781 1036.56 522.781 1036.57 522.731 1036.57C503.766 1031.17 484.723 1026.04 460.816 1036.57" fill="#D5A681"/>
<path d="M364.434 1114.19C364.434 1114.19 248.273 1114.19 240.715 1114.19C233.156 1114.19 233.91 1111.74 233.91 1111.74L224.84 1089.07H477.32L468.246 1111.74C468.246 1111.74 469.004 1114.19 461.445 1114.19C453.887 1114.19 337.727 1114.19 337.727 1114.19" fill="#514C47"/>
<path d="M463.461 1110.58H238.699V970.141H463.461V1110.58Z" fill="#A1988F"/>
<path d="M349.152 1018C359.816 1018 368.461 1026.64 368.461 1037.31C368.461 1047.97 359.816 1056.62 349.152 1056.62V1018Z" fill="white"/>
<path d="M265.223 1138.26C264.742 1137.7 264.371 1137.04 264.082 1136.35C263.777 1135.67 263.504 1134.99 263.227 1134.3C262.68 1132.94 262.117 1131.58 261.426 1130.3C260.07 1127.72 258.328 1125.37 256.215 1123.38C255.734 1122.83 255.133 1122.41 254.598 1121.92L253.77 1121.21L252.883 1120.58C252.289 1120.15 251.719 1119.7 251.102 1119.3C250.477 1118.93 249.855 1118.54 249.238 1118.15C248.629 1117.74 247.977 1117.41 247.324 1117.07L245.367 1116.05C244.047 1115.41 242.687 1114.84 241.355 1114.19C242.766 1114.63 244.168 1115.11 245.566 1115.61L247.605 1116.51C248.285 1116.81 248.969 1117.1 249.613 1117.48C252.281 1118.82 254.719 1120.61 256.91 1122.66C259.078 1124.74 260.883 1127.22 262.109 1129.96C262.738 1131.32 263.23 1132.73 263.684 1134.14C264.125 1135.55 264.438 1137.01 265.223 1138.26Z" fill="#8C8C8C"/>
<path d="M442.918 1137.75C443.238 1136.16 443.531 1134.56 443.906 1132.98C444.293 1131.4 444.715 1129.83 445.219 1128.27C445.746 1126.72 446.32 1125.18 447.129 1123.72C447.535 1122.99 447.977 1122.27 448.559 1121.62C449.168 1120.95 449.883 1120.53 450.531 1120.03C451.207 1119.55 451.918 1119.13 452.625 1118.71C453.359 1118.33 454.078 1117.92 454.84 1117.61C456.332 1116.91 457.902 1116.41 459.484 1115.99C462.652 1115.16 465.945 1114.81 469.188 1115.03C465.945 1115.16 462.742 1115.72 459.676 1116.67C456.617 1117.62 453.691 1118.99 451.094 1120.83C450.469 1121.32 449.77 1121.75 449.301 1122.29C448.793 1122.85 448.367 1123.51 447.98 1124.19C447.215 1125.57 446.578 1127.05 446.016 1128.55C444.832 1131.55 443.977 1134.68 442.918 1137.75Z" fill="#8C8C8C"/>
<path d="M354.777 778.84H311.207C285.758 778.84 265.129 758.211 265.129 732.762V682.469C265.129 657.02 285.758 636.391 311.207 636.391H354.777C380.227 636.391 400.855 657.02 400.855 682.469V732.762C400.855 758.211 380.227 778.84 354.777 778.84Z" fill="#F8BC8B"/>
<path d="M400.688 709.351C406.152 709.289 408.91 711.578 409.762 712.379C416.266 718.461 411.355 730.578 410.77 732.031C409.805 734.41 408.52 737.461 405.227 739.59C401.75 741.828 398.109 741.73 396.656 741.601" fill="#F8BC8B"/>
<path d="M265.605 711.481C260.144 711.422 257.387 713.711 256.535 714.5C250.031 720.59 254.941 732.711 255.527 734.16C256.492 736.539 257.777 739.59 261.07 741.719C264.543 743.961 268.187 743.86 269.637 743.731" fill="#F8BC8B"/>
<path d="M256.535 714.5C256.535 714.5 244.969 685.781 248.496 669.148C251.781 653.66 267.293 634.23 269.402 631.64C269.578 631.422 269.723 631.269 269.93 631.078C272.43 628.789 290.469 612.64 303.262 611.699C317.035 610.691 317.539 607.16 347.773 611.699C378.012 616.23 396.488 625.808 400.855 628.828C405.227 631.859 409.762 636.39 409.762 658.058V706.488C409.762 709.679 407.066 712.199 403.891 711.988L401.484 711.828C398.516 711.64 396.234 709.121 396.34 706.14L396.891 690.379C397.008 687.019 394.129 684.262 390.797 684.73C381.285 686.07 360.289 683.25 322.422 652.219C320.238 650.429 317.059 650.469 315.051 652.461C305.215 662.14 277.727 688.801 273.191 688.801C269.031 688.801 267.426 701 266.883 707.09C266.695 709.172 265.375 710.98 263.434 711.75L256.535 714.5Z" fill="#383128"/>
<path d="M298.32 772.699C300.332 774.5 298.32 781.309 298.32 781.309C298.32 808.82 376.297 813.031 376.297 782.422L376.215 772.699H298.32Z" fill="#F8BC8B"/>
<path d="M308.445 778.641C310.625 779.301 312.809 779.922 315.023 780.422C317.227 780.949 319.453 781.379 321.691 781.73C323.93 782.051 326.172 782.359 328.426 782.531C330.68 782.711 332.941 782.762 335.199 782.77C337.457 782.77 339.719 782.691 341.973 782.512C344.227 782.328 346.469 782.031 348.707 781.711C350.945 781.371 353.168 780.922 355.375 780.398C357.59 779.91 359.773 779.289 361.957 778.641C359.848 779.5 357.684 780.219 355.5 780.879C353.305 781.5 351.082 782.031 348.84 782.469C344.348 783.32 339.773 783.719 335.199 783.77C330.625 783.711 326.047 783.359 321.559 782.48C317.07 781.621 312.66 780.359 308.445 778.641Z" fill="#865844"/>
<path d="M403.949 715.469C404.598 715.602 406.805 716.129 408.035 718.07C409.602 720.539 408.973 724.34 406.18 726.988" fill="#D99873"/>
<path d="M261.996 716.211C261.129 716.828 259.586 718.129 258.652 720.301C256.73 724.77 259.074 729.031 259.394 729.59" fill="#D99873"/>
<path d="M1801.73 817.629C1801.73 817.629 1821.18 858.52 1835.12 865.199C1849.06 871.879 1855.75 867.121 1855.75 867.121L1835.02 782.602L1816.88 807.129L1801.73 817.629Z" fill="#F9B995"/>
<path d="M1911.59 1393.12H1863.75C1860.41 1393.12 1857.71 1391.77 1857.71 1390.1L1859.47 1383.67C1859.76 1382.6 1860.29 1381.55 1861.04 1380.53C1861.83 1379.46 1862.46 1378.37 1862.2 1377.26C1861.72 1375.13 1861.32 1369.27 1861.23 1368.73L1857.71 1351.56C1857.71 1349.89 1860.41 1348.53 1863.75 1348.53H1911.59C1914.93 1348.53 1917.64 1349.89 1917.64 1351.56L1914.29 1375.11C1913.97 1376.68 1914.08 1378.26 1914.61 1379.8L1917.64 1390.1C1917.64 1391.77 1914.93 1393.12 1911.59 1393.12Z" fill="#232021"/>
<path d="M2005.32 1393.12H1957.48C1954.14 1393.12 1951.43 1391.77 1951.43 1390.1L1953.19 1383.67C1953.48 1382.6 1954.01 1381.55 1954.76 1380.53C1955.56 1379.46 1956.18 1378.37 1955.93 1377.26C1955.44 1375.13 1955.05 1369.27 1954.95 1368.73L1951.43 1351.56C1951.43 1349.89 1954.14 1348.53 1957.48 1348.53H2005.32C2008.66 1348.53 2011.36 1349.89 2011.36 1351.56L2008.01 1375.11C2007.69 1376.68 2007.8 1378.26 2008.33 1379.8L2011.36 1390.1C2011.36 1391.77 2008.66 1393.12 2005.32 1393.12Z" fill="#232021"/>
<path d="M1926.26 948.789C1922.46 973.449 1938.23 1069.1 1938.23 1069.1L1942.86 1365.71C1977.48 1389.18 2004.44 1377.33 2015.65 1362.29C2030.5 1344.77 2003.62 1059.91 2003.62 1059.91C2018.86 1022.47 2010.69 817.191 2010.69 817.191L1835.98 817.98C1835.98 817.98 1835.98 1023.46 1852.52 1060.15C1852.52 1060.15 1837.16 1346 1852.52 1362.81C1869.21 1377.67 1894.46 1382.1 1924.57 1362.81L1917.48 1066.26C1917.48 1066.26 1929.29 969.961 1924.57 945.5" fill="#402840"/>
<path d="M1921.29 883.891C1921.88 887.469 1922.17 891.07 1922.38 894.672C1922.56 898.27 1922.66 901.879 1922.46 905.5C1921.87 901.922 1921.59 898.32 1921.38 894.719C1921.2 891.121 1921.1 887.512 1921.29 883.891Z" fill="#301E30"/>
<path d="M2048.86 367.34C2047.37 368.32 2045.46 368.25 2044.04 367.16C2037.08 361.809 2021.75 345.781 2016.9 343.352C2011.26 340.531 2014.08 309.559 2016.9 309.559C2019.71 309.559 2030.04 322.93 2030.15 326.449C2030.27 329.969 2024.64 305.328 2020.42 291.262C2017.17 280.43 2011.01 259.219 2008.34 249.98C2007.46 246.941 2010.19 243.98 2013.24 244.801C2017.57 245.969 2023.95 250.531 2031.68 264.512C2046.46 291.262 2083.34 349.75 2073.92 353.199C2066.51 355.91 2053.92 364 2048.86 367.34Z" fill="#F9B995"/>
<path d="M1827.33 570.461C1827.32 570.531 1827.31 570.59 1827.3 570.66L1827.31 570.59L1827.33 570.461ZM2137.27 486.949L2084.84 350.219C2082.89 345.14 2077.55 341.961 2072.23 343.078C2050.78 347.578 2040.77 363.769 2037.04 371.82C2035.75 374.578 2035.7 377.73 2036.79 380.578L2071.33 470.488C2073.46 476.031 2070.81 482.058 2065.51 484.719C2047.15 493.929 2015.3 526.551 2001.3 541.422C1997.76 545.179 1991.46 545.738 1987.07 543.012C1982.4 540.101 1975.71 537.281 1967.62 537.64C1953.08 538.269 1901.65 537.769 1891.3 537.66C1890.07 537.64 1888.98 537.828 1887.82 538.238C1881.89 540.34 1860.87 547.461 1836.98 551.422C1832.59 552.14 1828.67 554.512 1825.87 557.98C1807.32 581.039 1737.43 667.871 1737.43 667.871C1737.43 667.871 1726.17 677.859 1737.43 699.621C1746.54 717.211 1776.85 787.379 1788.09 813.539C1790.57 819.32 1797.36 821.969 1803.02 819.23C1814.02 813.898 1830.24 802.98 1835.19 783.512C1835.8 781.14 1835.43 778.621 1834.4 776.398C1828.52 763.789 1807.92 719.59 1800.21 703.051C1798.4 699.16 1798.98 694.621 1801.68 691.281L1813.59 676.609C1819.33 669.539 1830.68 671.75 1833.28 680.48C1840.1 703.41 1843.58 708.711 1843.02 728.41C1842.36 751.5 1836.75 776.461 1836.05 779.488C1836.01 779.691 1835.97 779.898 1835.93 780.109L1830.49 811.371C1830.43 812.148 1830.38 812.91 1830.32 813.691C1830.55 817.578 1833.04 828.379 1852.17 839.629C1876.11 853.711 1883.85 859.34 1903.56 861.449C1923.27 863.57 1983.11 845.262 1983.11 845.262C1983.11 845.262 2019.71 834.699 2012.67 803.031C2005.63 771.351 1985.92 733.328 1989.44 693.91C1991.12 675.148 1993.27 651.16 1995.07 631.129C1995.07 631.129 2073.21 563.679 2111.23 531.301C2149.24 498.922 2137.27 486.949 2137.27 486.949Z" fill="#DFCEB6"/>
<path d="M1991.18 555.32C1991.45 560.109 1991.61 564.91 1991.75 569.711C1991.9 574.52 1991.96 579.32 1992.06 584.121C1992.09 588.922 1992.16 593.719 1992.14 598.52L1992.1 605.73C1992.05 608.129 1992.04 610.531 1991.95 612.93C1991.81 610.531 1991.73 608.129 1991.61 605.73L1991.38 598.531C1991.23 593.73 1991.17 588.93 1991.07 584.129C1991.04 579.328 1990.97 574.531 1990.99 569.73C1991 564.922 1991.03 560.121 1991.18 555.32Z" fill="#70675B"/>
<path d="M1831.95 562.129C1832.25 569.129 1832.45 576.141 1832.62 583.148L1833.03 604.172L1833.21 625.191L1833.22 635.711C1833.18 639.211 1833.18 642.711 1833.12 646.219C1832.95 642.719 1832.86 639.211 1832.73 635.711L1832.44 625.199L1832.03 604.18L1831.86 583.16C1831.84 576.148 1831.84 569.141 1831.95 562.129Z" fill="#70675B"/>
<path d="M1796.33 695.859C1793.18 694.43 1789.96 693.379 1786.62 692.91C1783.29 692.422 1779.89 692.512 1776.47 692.941C1779.71 691.73 1783.3 691.43 1786.76 691.93C1790.22 692.43 1793.58 693.75 1796.33 695.859Z" fill="#70675B"/>
<path d="M2074.88 475.699C2077.77 474.559 2080.97 474.172 2084.06 474.641C2087.15 475.148 2090.06 476.57 2092.4 478.621C2090.04 476.59 2087.12 475.219 2084.05 474.738C2080.98 474.23 2077.78 474.59 2074.88 475.699Z" fill="white"/>
<path d="M1868.9 510.66C1859.35 503.192 1843.86 492.949 1833.18 474.192C1816.36 444.66 1815.75 407.621 1830.2 379.68C1836.14 368.192 1843.88 353.231 1858.48 349.16C1867.78 346.57 1876.06 349.461 1889.74 343.211C1896.98 339.899 1896.72 338.16 1903.14 335.77C1905.6 334.852 1920.24 329.41 1933.65 335.77C1945.96 341.61 1953.67 355.719 1953.74 371.488C1953.74 371.488 1973.84 387.121 1973.84 399.031C1973.84 410.93 1990.21 487.59 1913.55 518.852C1913.55 518.852 1888.09 525.66 1868.9 510.66Z" fill="#383128"/>
<path d="M1865.55 460.91C1861.11 460.16 1858.4 453.84 1857.8 449.641C1856.93 443.531 1859.77 436.641 1864.84 433.449C1872.31 428.77 1879.31 435.43 1888.07 429.93C1891.45 427.809 1891.1 426.391 1895.11 424.301C1896.86 423.398 1902.68 420.48 1909.9 422.191C1917.28 423.941 1921.19 429.371 1922.57 431.34C1923.76 433.059 1927.07 438.289 1926.79 445.422C1926.77 446.039 1926.3 455.75 1922.4 456.711C1919.08 457.531 1917.4 451.031 1910.53 447.02C1902.57 442.359 1891.65 443.41 1884.25 446.871C1873.2 452.02 1871.39 461.891 1865.55 460.91Z" fill="#70675B"/>
<path d="M1935.24 585.511C1929.22 575.328 1927.24 566.289 1923.27 548.199C1922.53 544.801 1921.79 541.39 1921.1 537.941H1948.97C1947.07 526.379 1942.86 521.25 1939.2 518.738C1934.24 515.308 1929.62 516.219 1924.18 511.531C1921.36 509.101 1919.54 506.191 1918.29 503.539C1918.34 502.679 1918.28 501.91 1918.34 501.031C1920.3 475.48 1929.16 468.769 1923.27 458.09C1917.72 448.031 1903.1 441.73 1890.19 444.719C1879.86 447.101 1874.12 454.609 1872.59 456.679C1865.04 466.871 1864.43 480.488 1868.36 490.469C1872.48 500.91 1878.67 500.011 1883.85 512.289C1887.99 522.09 1887.58 531.031 1887.37 534.82C1886.56 549.269 1880.58 550.851 1876.81 567.199C1875.2 574.199 1872.2 587.969 1877.51 603.101C1879.09 607.59 1883.02 618.32 1893.71 626.328C1904.74 634.609 1922.73 639.789 1937.35 631.969C1939.53 630.801 1951.02 624.648 1952.13 614.371C1953.18 604.73 1944.14 600.539 1935.24 585.511Z" fill="#383128"/>
<path d="M1644.67 1359.9H1504.25V1219.48H1644.67V1359.9Z" fill="#AEC0E8"/>
<path d="M1606.23 1291.91C1603.76 1289.25 1601.3 1286.56 1598.82 1283.9C1596 1280.87 1594.43 1280.74 1591.25 1283.26C1590.2 1284.09 1589.21 1285 1588.18 1285.85C1584.38 1289.02 1582.79 1288.95 1579.47 1285.38C1575.43 1281.03 1571.46 1276.63 1567.4 1272.3C1563.73 1268.39 1560.51 1268.53 1557.12 1272.62C1547.74 1283.93 1524.31 1311.64 1518.96 1318.76C1518.36 1319.55 1518.04 1320.51 1518.04 1321.51C1518.05 1327.35 1520.79 1330.05 1526.68 1330.06C1542.66 1330.06 1558.64 1330.06 1574.62 1330.06C1590.6 1330.06 1606.58 1330.06 1622.57 1330.06C1626.24 1330.05 1628.69 1328.99 1630.01 1326.76C1631.42 1324.37 1631.04 1321.31 1629.27 1319.16C1624.22 1313.05 1610.64 1296.64 1606.23 1291.91Z" fill="#68A58C"/>
<path d="M1602.86 1273.38C1595.94 1273.37 1590.85 1268.16 1590.9 1261.16C1590.94 1254.51 1596.35 1249.25 1603.05 1249.33C1609.66 1249.41 1615.04 1254.91 1614.97 1261.5C1614.9 1268.17 1609.58 1273.4 1602.86 1273.38Z" fill="#F4A72B"/>
<path d="M2363.61 1143.58H2250.93C2232.36 1143.58 2217.31 1128.53 2217.31 1109.96V1103.74C2217.31 1085.17 2232.36 1070.12 2250.93 1070.12H2363.61C2382.18 1070.12 2397.23 1085.17 2397.23 1103.74V1109.96C2397.23 1128.53 2382.18 1143.58 2363.61 1143.58Z" fill="#7A7E80"/>
<path d="M2250.37 1104.59L2279.27 1089.7V1094L2254.92 1106.21V1106.33L2279.27 1118.54V1122.84L2250.37 1107.95V1104.59Z" fill="#FFFAF4"/>
<path d="M2296.53 1125.33L2313.91 1080.17H2318.14L2300.7 1125.33H2296.53Z" fill="#FFFAF4"/>
<path d="M2364.17 1108.01L2335.27 1122.84V1118.54L2359.81 1106.33V1106.21L2335.27 1094V1089.7L2364.17 1104.53V1108.01Z" fill="#FFFAF4"/>
</svg>
